<svg width="24" height="24" viewBox="0 0 24 24" fill="none" xmlns="http://www.w3.org/2000/svg">
<mask id="mask0_380_1268" style="mask-type:alpha" maskUnits="userSpaceOnUse" x="0" y="0" width="24" height="24">
<rect width="24" height="24" fill="#D9D9D9"/>
</mask>
<g mask="url(#mask0_380_1268)">
<path d="M4 20C3.45 20 2.97917 19.8042 2.5875 19.4125C2.19583 19.0208 2 18.55 2 18V6C2 5.45 2.19583 4.97917 2.5875 4.5875C2.97917 4.19583 3.45 4 4 4H20C20.55 4 21.0208 4.19583 21.4125 4.5875C21.8042 4.97917 22 5.45 22 6V12.025H20V6H4V18H14.025V20H4ZM19.5 21L18.4 18.6L16 17.5L18.4 16.4L19.5 14L20.6 16.4L23 17.5L20.6 18.6L19.5 21ZM12 16L13.25 13.25L16 12L13.25 10.75L12 8L10.75 10.75L8 12L10.75 13.25L12 16Z" fill="#FF882E"/>
</g>
</svg>
