<svg width="24" height="24" viewBox="0 0 24 24" fill="none" xmlns="http://www.w3.org/2000/svg">
<mask id="mask0_380_1286" style="mask-type:alpha" maskUnits="userSpaceOnUse" x="0" y="0" width="24" height="24">
<rect width="24" height="24" fill="#D9D9D9"/>
</mask>
<g mask="url(#mask0_380_1286)">
<path d="M11 8.275V7.85C10.2667 7.63333 9.66667 7.22083 9.2 6.6125C8.73333 6.00417 8.5 5.3 8.5 4.5C8.5 3.53333 8.84167 2.70833 9.525 2.025C10.2083 1.34167 11.0333 1 12 1C12.9667 1 13.7917 1.34167 14.475 2.025C15.1583 2.70833 15.5 3.53333 15.5 4.5C15.5 5.3 15.2667 6.00417 14.8 6.6125C14.3333 7.22083 13.7333 7.63333 13 7.85V8.275L20 12.3C20.3167 12.4833 20.5625 12.7292 20.7375 13.0375C20.9125 13.3458 21 13.6833 21 14.05V15.95C21 16.3167 20.9125 16.6542 20.7375 16.9625C20.5625 17.2708 20.3167 17.5167 20 17.7L13 21.725C12.6833 21.9083 12.35 22 12 22C11.65 22 11.3167 21.9083 11 21.725L4 17.7C3.68333 17.5167 3.4375 17.2708 3.2625 16.9625C3.0875 16.6542 3 16.3167 3 15.95V14.05C3 13.6833 3.0875 13.3458 3.2625 13.0375C3.4375 12.7292 3.68333 12.4833 4 12.3L11 8.275ZM11 17.725L5 14.275V15.95L12 20L19 15.95V14.275L13 17.725C12.6833 17.9083 12.35 18 12 18C11.65 18 11.3167 17.9083 11 17.725ZM11 14V10.575L6.8 13L12 16L17.2 13L13 10.575V14H11ZM12 6C12.4167 6 12.7708 5.85417 13.0625 5.5625C13.3542 5.27083 13.5 4.91667 13.5 4.5C13.5 4.08333 13.3542 3.72917 13.0625 3.4375C12.7708 3.14583 12.4167 3 12 3C11.5833 3 11.2292 3.14583 10.9375 3.4375C10.6458 3.72917 10.5 4.08333 10.5 4.5C10.5 4.91667 10.6458 5.27083 10.9375 5.5625C11.2292 5.85417 11.5833 6 12 6Z" fill="#FF882E"/>
</g>
</svg>
