<svg width="24" height="24" viewBox="0 0 24 24" fill="none" xmlns="http://www.w3.org/2000/svg">
<mask id="mask0_380_1292" style="mask-type:alpha" maskUnits="userSpaceOnUse" x="0" y="0" width="24" height="24">
<rect width="24" height="24" fill="#D9D9D9"/>
</mask>
<g mask="url(#mask0_380_1292)">
<path d="M9.0002 23C8.71686 23 8.47936 22.9042 8.2877 22.7125C8.09603 22.5208 8.0002 22.2833 8.0002 22V10C8.0002 9.71667 8.09603 9.47917 8.2877 9.2875C8.47936 9.09583 8.71686 9 9.0002 9H15.0002C15.2835 9 15.521 9.09583 15.7127 9.2875C15.9044 9.47917 16.0002 9.71667 16.0002 10V22C16.0002 22.2833 15.9044 22.5208 15.7127 22.7125C15.521 22.9042 15.2835 23 15.0002 23H9.0002ZM12.0002 14.25C12.3502 14.25 12.646 14.1292 12.8877 13.8875C13.1294 13.6458 13.2502 13.35 13.2502 13C13.2502 12.65 13.1294 12.3542 12.8877 12.1125C12.646 11.8708 12.3502 11.75 12.0002 11.75C11.6502 11.75 11.3544 11.8708 11.1127 12.1125C10.871 12.3542 10.7502 12.65 10.7502 13C10.7502 13.35 10.871 13.6458 11.1127 13.8875C11.3544 14.1292 11.6502 14.25 12.0002 14.25ZM8.4502 7.45L7.0502 6.05C7.71686 5.38333 8.4752 4.875 9.3252 4.525C10.1752 4.175 11.0669 4 12.0002 4C12.9335 4 13.8252 4.175 14.6752 4.525C15.5252 4.875 16.2835 5.38333 16.9502 6.05L15.5502 7.45C15.0669 6.96667 14.521 6.60417 13.9127 6.3625C13.3044 6.12083 12.6669 6 12.0002 6C11.3335 6 10.696 6.12083 10.0877 6.3625C9.47936 6.60417 8.93353 6.96667 8.4502 7.45ZM5.6502 4.65L4.2002 3.2C5.2502 2.18333 6.44603 1.39583 7.7877 0.8375C9.12936 0.279167 10.5335 0 12.0002 0C13.4669 0 14.871 0.279167 16.2127 0.8375C17.5544 1.39583 18.7335 2.2 19.7502 3.25L18.3502 4.65C17.5169 3.78333 16.5502 3.125 15.4502 2.675C14.3502 2.225 13.2002 2 12.0002 2C10.8002 2 9.6502 2.225 8.5502 2.675C7.4502 3.125 6.48353 3.78333 5.6502 4.65ZM10.0002 21H14.0002V11H10.0002V21Z" fill="#FF882E"/>
</g>
</svg>
