<svg width="25" height="25" viewBox="0 0 25 25" fill="none" xmlns="http://www.w3.org/2000/svg">
<mask id="mask0_380_1280" style="mask-type:alpha" maskUnits="userSpaceOnUse" x="0" y="0" width="25" height="25">
<rect x="0.904785" y="0.374023" width="24" height="24" fill="#D9D9D9"/>
</mask>
<g mask="url(#mask0_380_1280)">
<path d="M17.9048 22.374H7.90479C7.35479 22.374 6.88395 22.1782 6.49229 21.7865C6.10062 21.3949 5.90479 20.924 5.90479 20.374V4.37402C5.90479 3.82402 6.10062 3.35319 6.49229 2.96152C6.88395 2.56986 7.35479 2.37402 7.90479 2.37402H17.9048C18.4548 2.37402 18.9256 2.56986 19.3173 2.96152C19.709 3.35319 19.9048 3.82402 19.9048 4.37402V20.374C19.9048 20.924 19.709 21.3949 19.3173 21.7865C18.9256 22.1782 18.4548 22.374 17.9048 22.374ZM17.9048 20.374V4.37402H7.90479V20.374H17.9048ZM12.9048 9.37402C13.4548 9.37402 13.9256 9.17819 14.3173 8.78652C14.709 8.39486 14.9048 7.92402 14.9048 7.37402C14.9048 6.82402 14.709 6.35319 14.3173 5.96152C13.9256 5.56986 13.4548 5.37402 12.9048 5.37402C12.3548 5.37402 11.884 5.56986 11.4923 5.96152C11.1006 6.35319 10.9048 6.82402 10.9048 7.37402C10.9048 7.92402 11.1006 8.39486 11.4923 8.78652C11.884 9.17819 12.3548 9.37402 12.9048 9.37402ZM12.9048 19.374C14.0048 19.374 14.9465 18.9824 15.7298 18.199C16.5131 17.4157 16.9048 16.474 16.9048 15.374C16.9048 14.274 16.5131 13.3324 15.7298 12.549C14.9465 11.7657 14.0048 11.374 12.9048 11.374C11.8048 11.374 10.8631 11.7657 10.0798 12.549C9.29645 13.3324 8.90479 14.274 8.90479 15.374C8.90479 16.474 9.29645 17.4157 10.0798 18.199C10.8631 18.9824 11.8048 19.374 12.9048 19.374ZM12.9048 17.374C12.3548 17.374 11.884 17.1782 11.4923 16.7865C11.1006 16.3949 10.9048 15.924 10.9048 15.374C10.9048 14.824 11.1006 14.3532 11.4923 13.9615C11.884 13.5699 12.3548 13.374 12.9048 13.374C13.4548 13.374 13.9256 13.5699 14.3173 13.9615C14.709 14.3532 14.9048 14.824 14.9048 15.374C14.9048 15.924 14.709 16.3949 14.3173 16.7865C13.9256 17.1782 13.4548 17.374 12.9048 17.374Z" fill="#FF882E"/>
</g>
</svg>
