<svg width="30" height="30" viewBox="0 0 30 30" fill="none" xmlns="http://www.w3.org/2000/svg">
<mask id="mask0_339_1238" style="mask-type:alpha" maskUnits="userSpaceOnUse" x="0" y="0" width="30" height="30">
<rect width="30" height="30" fill="#D9D9D9"/>
</mask>
<g mask="url(#mask0_339_1238)">
<path d="M10.8438 13.6875C10.0583 13.6875 9.38802 13.4099 8.83281 12.8547C8.2776 12.2995 8 11.6292 8 10.8438C8 10.0583 8.2776 9.38802 8.83281 8.83281C9.38802 8.2776 10.0583 8 10.8438 8C11.6292 8 12.2995 8.2776 12.8547 8.83281C13.4099 9.38802 13.6875 10.0583 13.6875 10.8438C13.6875 11.6292 13.4099 12.2995 12.8547 12.8547C12.2995 13.4099 11.6292 13.6875 10.8438 13.6875ZM10.8438 12.0625C11.1823 12.0625 11.4701 11.944 11.707 11.707C11.944 11.4701 12.0625 11.1823 12.0625 10.8438C12.0625 10.5052 11.944 10.2174 11.707 9.98047C11.4701 9.74349 11.1823 9.625 10.8438 9.625C10.5052 9.625 10.2174 9.74349 9.98047 9.98047C9.74349 10.2174 9.625 10.5052 9.625 10.8438C9.625 11.1823 9.74349 11.4701 9.98047 11.707C10.2174 11.944 10.5052 12.0625 10.8438 12.0625ZM18.1562 21C17.3708 21 16.7005 20.7224 16.1453 20.1672C15.5901 19.612 15.3125 18.9417 15.3125 18.1562C15.3125 17.3708 15.5901 16.7005 16.1453 16.1453C16.7005 15.5901 17.3708 15.3125 18.1562 15.3125C18.9417 15.3125 19.612 15.5901 20.1672 16.1453C20.7224 16.7005 21 17.3708 21 18.1562C21 18.9417 20.7224 19.612 20.1672 20.1672C19.612 20.7224 18.9417 21 18.1562 21ZM18.1562 19.375C18.4948 19.375 18.7826 19.2565 19.0195 19.0195C19.2565 18.7826 19.375 18.4948 19.375 18.1562C19.375 17.8177 19.2565 17.5299 19.0195 17.293C18.7826 17.056 18.4948 16.9375 18.1562 16.9375C17.8177 16.9375 17.5299 17.056 17.293 17.293C17.056 17.5299 16.9375 17.8177 16.9375 18.1562C16.9375 18.4948 17.056 18.7826 17.293 19.0195C17.5299 19.2565 17.8177 19.375 18.1562 19.375ZM9.1375 21L8 19.8625L19.8625 8L21 9.1375L9.1375 21Z" fill="#FF882E"/>
</g>
</svg>
