<svg width="42" height="42" viewBox="0 0 42 42" fill="none" xmlns="http://www.w3.org/2000/svg">
<mask id="mask0_305_93" style="mask-type:alpha" maskUnits="userSpaceOnUse" x="2" y="3" width="38" height="38">
<rect x="2" y="3" width="38" height="38" fill="#D9D9D9"/>
</mask>
<g mask="url(#mask0_305_93)">
<path d="M5.1665 37.6667V18.6271L16.2498 13.9167V17.0833L24.1665 13.9167V18.6667H36.8332V37.6667H5.1665ZM8.33317 34.5H33.6665V21.8333H20.9998V18.5875L13.0832 21.7542V18.6667L8.33317 20.7646V34.5ZM19.4165 31.3333H22.5832V25H19.4165V31.3333ZM13.0832 31.3333H16.2498V25H13.0832V31.3333ZM25.7498 31.3333H28.9165V25H25.7498V31.3333ZM36.8332 18.6667H28.9165L30.4998 6H35.2498L36.8332 18.6667Z" fill="#FF882E"/>
</g>
<rect width="42" height="42" rx="8" fill="#FF882E" fill-opacity="0.2"/>
</svg>
