<svg width="44" height="42" viewBox="0 0 44 42" fill="none" xmlns="http://www.w3.org/2000/svg">
<mask id="mask0_305_95" style="mask-type:alpha" maskUnits="userSpaceOnUse" x="4" y="2" width="39" height="39">
<rect x="4" y="2" width="38.1073" height="38.1073" fill="#D9D9D9"/>
</mask>
<g mask="url(#mask0_305_95)">
<path d="M17.6552 37.7256L14.6384 32.6446L8.92228 31.3744L9.47801 25.4995L5.58789 21.0537L9.47801 16.6078L8.92228 10.7329L14.6384 9.46269L17.6552 4.38171L23.0537 6.68403L28.4523 4.38171L31.4691 9.46269L37.1852 10.7329L36.6295 16.6078L40.5196 21.0537L36.6295 25.4995L37.1852 31.3744L31.4691 32.6446L28.4523 37.7256L23.0537 35.4233L17.6552 37.7256ZM19.0048 33.6767L23.0537 31.9301L27.182 33.6767L29.405 29.866L33.7714 28.8339L33.3745 24.388L36.3119 21.0537L33.3745 17.6399L33.7714 13.194L29.405 12.2413L27.1026 8.43061L23.0537 10.1772L18.9254 8.43061L16.7025 12.2413L12.3361 13.194L12.733 17.6399L9.79557 21.0537L12.733 24.388L12.3361 28.9133L16.7025 29.866L19.0048 33.6767ZM21.3865 26.6904L30.3576 17.7193L28.1347 15.417L21.3865 22.1651L17.9728 18.8307L15.7498 21.0537L21.3865 26.6904Z" fill="#FF882E"/>
</g>
<rect x="2" width="42" height="42" rx="8" fill="#FF882E" fill-opacity="0.2"/>
</svg>
