<svg width="42" height="42" viewBox="0 0 42 42" fill="none" xmlns="http://www.w3.org/2000/svg">
<mask id="mask0_305_97" style="mask-type:alpha" maskUnits="userSpaceOnUse" x="2" y="3" width="37" height="37">
<rect x="2" y="3" width="37" height="37" fill="#D9D9D9"/>
</mask>
<g mask="url(#mask0_305_97)">
<path d="M25.8957 34.45L18.7655 27.3198L21.9645 24.0823L25.8957 28.0136L34.1436 19.7657L37.3426 23.0032L25.8957 34.45ZM35.6853 18.4167H30.829V11.1709H28.0155V16.4125H12.9842V11.1709H10.1707V31.8292H18.9582V36.6855H10.1707C8.83523 36.6855 7.69199 36.2099 6.74096 35.2589C5.78995 34.3079 5.31445 33.1647 5.31445 31.8292V11.1709C5.31445 9.8354 5.78995 8.69216 6.74096 7.74116C7.69199 6.79013 8.83523 6.31462 10.1707 6.31462H15.1426C15.5794 5.33823 16.2895 4.54812 17.273 3.9443C18.2564 3.34048 19.332 3.03857 20.4999 3.03857C21.6561 3.03857 22.7289 3.34048 23.7181 3.9443C24.7073 4.54812 25.4332 5.33823 25.8957 6.31462H30.829C32.1645 6.31462 33.3077 6.79013 34.2587 7.74116C35.2098 8.69216 35.6853 9.8354 35.6853 11.1709V18.4167ZM20.4999 10.5927C20.9367 10.5927 21.3028 10.445 21.5983 10.1495C21.8938 9.85403 22.0415 9.48788 22.0415 9.05107C22.0415 8.61427 21.8938 8.24812 21.5983 7.95264C21.3028 7.65715 20.9367 7.50941 20.4999 7.50941C20.0631 7.50941 19.6969 7.65715 19.4014 7.95264C19.1059 8.24812 18.9582 8.61427 18.9582 9.05107C18.9582 9.48788 19.1059 9.85403 19.4014 10.1495C19.6969 10.445 20.0631 10.5927 20.4999 10.5927Z" fill="#FF882E"/>
</g>
<rect width="42" height="42" rx="8" fill="#FF882E" fill-opacity="0.2"/>
</svg>
