<svg width="42" height="42" viewBox="0 0 42 42" fill="none" xmlns="http://www.w3.org/2000/svg">
<mask id="mask0_305_98" style="mask-type:alpha" maskUnits="userSpaceOnUse" x="3" y="3" width="37" height="37">
<rect x="3" y="3" width="37" height="37" fill="#D9D9D9"/>
</mask>
<g mask="url(#mask0_305_98)">
<path d="M12.2498 33.8333C10.9651 33.8333 9.8731 33.3837 8.9738 32.4844C8.07449 31.5851 7.62484 30.4931 7.62484 29.2083H4.5415V12.25C4.5415 11.4021 4.84341 10.6762 5.44723 10.0724C6.05105 9.46858 6.77692 9.16667 7.62484 9.16667H29.2082V15.3333H33.8332L38.4582 21.5V29.2083H35.3748C35.3748 30.4931 34.9252 31.5851 34.0259 32.4844C33.1266 33.3837 32.0346 33.8333 30.7498 33.8333C29.4651 33.8333 28.3731 33.3837 27.4738 32.4844C26.5745 31.5851 26.1248 30.4931 26.1248 29.2083H16.8748C16.8748 30.4931 16.4252 31.5851 15.5259 32.4844C14.6266 33.3837 13.5346 33.8333 12.2498 33.8333ZM12.2498 30.75C12.6866 30.75 13.0528 30.6023 13.3483 30.3068C13.6438 30.0113 13.7915 29.6451 13.7915 29.2083C13.7915 28.7715 13.6438 28.4054 13.3483 28.1099C13.0528 27.8144 12.6866 27.6667 12.2498 27.6667C11.813 27.6667 11.4469 27.8144 11.1514 28.1099C10.8559 28.4054 10.7082 28.7715 10.7082 29.2083C10.7082 29.6451 10.8559 30.0113 11.1514 30.3068C11.4469 30.6023 11.813 30.75 12.2498 30.75ZM30.7498 30.75C31.1866 30.75 31.5528 30.6023 31.8483 30.3068C32.1438 30.0113 32.2915 29.6451 32.2915 29.2083C32.2915 28.7715 32.1438 28.4054 31.8483 28.1099C31.5528 27.8144 31.1866 27.6667 30.7498 27.6667C30.313 27.6667 29.9469 27.8144 29.6514 28.1099C29.3559 28.4054 29.2082 28.7715 29.2082 29.2083C29.2082 29.6451 29.3559 30.0113 29.6514 30.3068C29.9469 30.6023 30.313 30.75 30.7498 30.75ZM29.2082 23.0417H35.7603L32.2915 18.4167H29.2082V23.0417Z" fill="#FF882E"/>
</g>
<rect width="42" height="42" rx="8" fill="#FF882E" fill-opacity="0.2"/>
</svg>
