<svg width="42" height="42" viewBox="0 0 42 42" fill="none" xmlns="http://www.w3.org/2000/svg">
<rect width="42" height="42" rx="8" fill="#FFDA86" fill-opacity="0.2"/>
<mask id="mask0_308_48" style="mask-type:alpha" maskUnits="userSpaceOnUse" x="3" y="3" width="36" height="36">
<rect x="3" y="3" width="35.5" height="35.5" fill="#FFDA86"/>
</mask>
<g mask="url(#mask0_308_48)">
<path d="M25.1873 32.5834C21.8839 32.5834 19.0858 31.4371 16.7931 29.1444C14.5004 26.8516 13.354 24.0536 13.354 20.7501C13.354 17.4713 14.5004 14.6793 16.7931 12.3743C19.0858 10.0693 21.8839 8.91675 25.1873 8.91675C28.4662 8.91675 31.2581 10.0693 33.5631 12.3743C35.8682 14.6793 37.0207 17.4713 37.0207 20.7501C37.0207 24.0536 35.8682 26.8516 33.5631 29.1444C31.2581 31.4371 28.4662 32.5834 25.1873 32.5834ZM25.1873 29.6251C27.6526 29.6251 29.7481 28.7622 31.4738 27.0365C33.1995 25.3108 34.0623 23.2154 34.0623 20.7501C34.0623 18.2848 33.1995 16.1893 31.4738 14.4636C29.7481 12.7379 27.6526 11.8751 25.1873 11.8751C22.7221 11.8751 20.6266 12.7379 18.9009 14.4636C17.1752 16.1893 16.3123 18.2848 16.3123 20.7501C16.3123 23.2154 17.1752 25.3108 18.9009 27.0365C20.6266 28.7622 22.7221 29.6251 25.1873 29.6251ZM28.5524 26.26L30.6603 24.1522L26.6665 20.1584V14.8334H23.7082V21.3787L28.5524 26.26Z" fill="#FFDA86"/>
</g>
</svg>
