<svg width="43" height="43" viewBox="0 0 43 43" fill="none" xmlns="http://www.w3.org/2000/svg">
<rect x="1" width="42" height="42" rx="8" fill="#FFDA86" fill-opacity="0.2"/>
<mask id="mask0_308_50" style="mask-type:alpha" maskUnits="userSpaceOnUse" x="0" y="0" width="43" height="43">
<rect width="43" height="43" fill="#FFDA86"/>
</mask>
<g mask="url(#mask0_308_50)">
<path fill-rule="evenodd" clip-rule="evenodd" d="M12.5417 34.2804V37.8638H30.4583V34.2804H23.2917V28.7263C24.7549 28.3978 26.0613 27.7782 27.2109 26.8674C28.3606 25.9567 29.2042 24.8145 29.7417 23.4409C31.9813 23.1721 33.855 22.1942 35.363 20.507C36.871 18.8198 37.625 16.8415 37.625 14.5721V12.7804C37.625 11.795 37.2741 10.9514 36.5724 10.2497C35.8707 9.54797 35.0271 9.1971 34.0417 9.1971H30.4583V5.61377H12.5417V9.1971H8.95833C7.97292 9.1971 7.12934 9.54797 6.4276 10.2497C5.72587 10.9514 5.375 11.795 5.375 12.7804V14.5721C5.375 16.8415 6.12899 18.8198 7.63698 20.507C9.14497 22.1942 11.0188 23.1721 13.2583 23.4409C13.7958 24.8145 14.6394 25.9567 15.7891 26.8674C16.9387 27.7782 18.2451 28.3978 19.7083 28.7263V34.2804H12.5417ZM12.5417 12.7804V19.5888C11.4667 19.2006 10.6007 18.5511 9.94375 17.6403C9.28681 16.7296 8.95833 15.7068 8.95833 14.5721V12.7804H12.5417ZM25.3073 23.7544C24.2622 24.7995 22.9931 25.3221 21.5 25.3221C20.0069 25.3221 18.7378 24.7995 17.6927 23.7544C16.6476 22.7093 16.125 21.4402 16.125 19.9471V9.1971H26.875V19.9471C26.875 21.4402 26.3524 22.7093 25.3073 23.7544ZM33.0562 17.6403C32.3993 18.5511 31.5333 19.2006 30.4583 19.5888V12.7804H34.0417V14.5721C34.0417 15.7068 33.7132 16.7296 33.0562 17.6403Z" fill="#FFDA86"/>
<mask id="mask1_308_50" style="mask-type:alpha" maskUnits="userSpaceOnUse" x="15" y="9" width="13" height="13">
<rect x="15.5278" y="9.79443" width="11.9444" height="11.9444" fill="#FFDA86"/>
</mask>
<g mask="url(#mask1_308_50)">
<path d="M20.1858 17.5666C20.0909 17.9778 20.5367 18.3011 20.8981 18.0831L21.2514 17.87C21.404 17.7779 21.5952 17.7785 21.7473 17.8714L22.0992 18.0865C22.4601 18.307 22.9085 17.9844 22.814 17.5721L22.7211 17.1667C22.6816 16.9943 22.7405 16.8142 22.8743 16.6986L23.1855 16.4294C23.5046 16.1534 23.3355 15.6296 22.9153 15.5921L22.5063 15.5557C22.3309 15.5401 22.1783 15.4293 22.1092 15.2673L21.9377 14.8649C21.7728 14.4784 21.2251 14.4776 21.0592 14.8638L20.8907 15.2559C20.8214 15.4173 20.6691 15.5276 20.4941 15.5432L20.0763 15.5804C19.6573 15.6177 19.4875 16.1392 19.8043 16.4161L20.1272 16.6982C20.2599 16.8142 20.3179 16.9937 20.2783 17.1654L20.1858 17.5666ZM19.3933 20.1605C19.0318 20.3785 18.5859 20.055 18.681 19.6437L19.1705 17.5276C19.2104 17.3552 19.1517 17.1749 19.018 17.059L17.3758 15.6352C17.0568 15.3587 17.2269 14.8347 17.6474 14.7982L19.8196 14.6097C19.9959 14.5943 20.1494 14.4827 20.2183 14.3197L21.0597 12.3289C21.2241 11.9398 21.7755 11.9398 21.9399 12.3289L22.7813 14.3197C22.8502 14.4827 23.0037 14.5943 23.18 14.6097L25.3522 14.7982C25.7727 14.8347 25.9428 15.3587 25.6238 15.6352L23.9816 17.059C23.8479 17.1749 23.7892 17.3552 23.8291 17.5276L24.3186 19.6437C24.4137 20.055 23.9678 20.3785 23.6063 20.1605L21.7466 19.0386C21.5948 18.947 21.4048 18.947 21.253 19.0386L19.3933 20.1605Z" fill="#FFDA86"/>
<path d="M20.1858 17.5666C20.0909 17.9778 20.5367 18.3011 20.8981 18.0831L21.2514 17.87C21.404 17.7779 21.5952 17.7785 21.7473 17.8714L22.0992 18.0865C22.4601 18.307 22.9085 17.9844 22.814 17.5721L22.7211 17.1667C22.6816 16.9943 22.7405 16.8142 22.8743 16.6986L23.1855 16.4294C23.5046 16.1534 23.3355 15.6296 22.9153 15.5921L22.5063 15.5557C22.3309 15.5401 22.1783 15.4293 22.1092 15.2673L21.9377 14.8649C21.7728 14.4784 21.2251 14.4776 21.0592 14.8638L20.8907 15.2559C20.8214 15.4173 20.6691 15.5276 20.4941 15.5432L20.0763 15.5804C19.6573 15.6177 19.4875 16.1392 19.8043 16.4161L20.1272 16.6982C20.2599 16.8142 20.3179 16.9937 20.2783 17.1654L20.1858 17.5666Z" fill="#FFDA86"/>
</g>
</g>
</svg>
