<svg width="42" height="42" viewBox="0 0 42 42" fill="none" xmlns="http://www.w3.org/2000/svg">
<rect width="42" height="42" rx="8" fill="#FFDA86" fill-opacity="0.2"/>
<mask id="mask0_308_47" style="mask-type:alpha" maskUnits="userSpaceOnUse" x="1" y="1" width="41" height="41">
<rect x="1" y="1" width="41" height="41" fill="#FFDA86"/>
</mask>
<g mask="url(#mask0_308_47)">
<path fill-rule="evenodd" clip-rule="evenodd" d="M28.561 34.8751L28.0485 32.3126C27.7068 32.1702 27.3865 32.0207 27.0875 31.8641C26.7886 31.7075 26.4825 31.5154 26.1693 31.2876L23.6922 32.0563L21.9839 29.1522L23.9485 27.4438C23.8915 27.0452 23.8631 26.6751 23.8631 26.3334C23.8631 25.9917 23.8915 25.6216 23.9485 25.223L21.9839 23.5147L23.6922 20.6105L26.1693 21.3792C26.4825 21.1515 26.7886 20.9593 27.0875 20.8027C27.3865 20.6461 27.7068 20.4966 28.0485 20.3542L28.561 17.7917H31.9776L32.4901 20.3542C32.8318 20.4966 33.1521 20.6532 33.4511 20.824C33.75 20.9949 34.0561 21.2084 34.3693 21.4647L36.8464 20.6105L38.5547 23.6001L36.5901 25.3084C36.6471 25.6501 36.6756 26.006 36.6756 26.3761C36.6756 26.7463 36.6471 27.1022 36.5901 27.4438L38.5547 29.1522L36.8464 32.0563L34.3693 31.2876C34.0561 31.5154 33.75 31.7075 33.4511 31.8641C33.1521 32.0207 32.8318 32.1702 32.4901 32.3126L31.9776 34.8751H28.561ZM32.6823 28.7464C32.0132 29.4155 31.2089 29.7501 30.2693 29.7501C29.3297 29.7501 28.5254 29.4155 27.8563 28.7464C27.1872 28.0773 26.8526 27.273 26.8526 26.3334C26.8526 25.3938 27.1872 24.5895 27.8563 23.9204C28.5254 23.2513 29.3297 22.9167 30.2693 22.9167C31.2089 22.9167 32.0132 23.2513 32.6823 23.9204C33.3514 24.5895 33.686 25.3938 33.686 26.3334C33.686 27.273 33.3514 28.0773 32.6823 28.7464Z" fill="#FFDA86"/>
<path fill-rule="evenodd" clip-rule="evenodd" d="M12.8406 17.6594C14.1788 18.9976 15.7875 19.6667 17.6667 19.6667C19.5458 19.6667 21.1545 18.9976 22.4927 17.6594C23.8309 16.3212 24.5 14.7125 24.5 12.8333C24.5 10.9542 23.8309 9.34549 22.4927 8.00729C21.1545 6.6691 19.5458 6 17.6667 6C15.7875 6 14.1788 6.6691 12.8406 8.00729C11.5024 9.34549 10.8333 10.9542 10.8333 12.8333C10.8333 14.7125 11.5024 16.3212 12.8406 17.6594ZM4 28.55V33.3333H19.8021C19.4604 32.8208 19.1472 32.2727 18.8625 31.6891C18.5778 31.1054 18.35 30.5146 18.1792 29.9167H7.41667V28.55C7.41667 28.2368 7.49497 27.9521 7.65156 27.6958C7.80816 27.4396 8.01458 27.2403 8.27083 27.0979C9.29583 26.5854 10.6127 26.0729 12.2214 25.5604C13.83 25.0479 15.6451 24.7917 17.6667 24.7917H17.8375C17.9229 24.1938 18.0439 23.6172 18.2005 23.062C18.3571 22.5068 18.5493 21.9729 18.7771 21.4604C18.6063 21.4035 18.4354 21.375 18.2646 21.375H17.6667C15.4743 21.375 13.467 21.6313 11.6448 22.1437C9.82257 22.6562 8.18542 23.2826 6.73333 24.0229C5.87917 24.45 5.21007 25.0764 4.72604 25.9021C4.24201 26.7278 4 27.6104 4 28.55ZM20.0797 15.2464C19.4106 15.9155 18.6062 16.25 17.6667 16.25C16.7271 16.25 15.9227 15.9155 15.2536 15.2464C14.5845 14.5773 14.25 13.7729 14.25 12.8333C14.25 11.8938 14.5845 11.0894 15.2536 10.4203C15.9227 9.75122 16.7271 9.41667 17.6667 9.41667C18.6062 9.41667 19.4106 9.75122 20.0797 10.4203C20.7488 11.0894 21.0833 11.8938 21.0833 12.8333C21.0833 13.7729 20.7488 14.5773 20.0797 15.2464Z" fill="#FFDA86"/>
</g>
</svg>
