<svg width="38" height="38" viewBox="0 0 38 38" fill="none" xmlns="http://www.w3.org/2000/svg">
<mask id="mask0_217_3418" style="mask-type:alpha" maskUnits="userSpaceOnUse" x="0" y="0" width="38" height="38">
<rect width="38" height="38" fill="#D9D9D9"/>
</mask>
<g mask="url(#mask0_217_3418)">
<path d="M5.21421 36.5858C4.43317 37.3668 3.16684 37.3668 2.38579 36.5858L1.41421 35.6142C0.633166 34.8332 0.633165 33.5668 1.41421 32.7858L13.7858 20.4142C14.5668 19.6332 14.5668 18.3668 13.7858 17.5858L1.41421 5.21421C0.633166 4.43317 0.633165 3.16683 1.41421 2.38579L2.38579 1.41421C3.16683 0.633166 4.43316 0.633165 5.21421 1.41421L17.5858 13.7858C18.3668 14.5668 19.6332 14.5668 20.4142 13.7858L32.7858 1.41421C33.5668 0.633166 34.8332 0.633165 35.6142 1.41421L36.5858 2.38579C37.3668 3.16683 37.3668 4.43316 36.5858 5.21421L24.2142 17.5858C23.4332 18.3668 23.4332 19.6332 24.2142 20.4142L36.5858 32.7858C37.3668 33.5668 37.3668 34.8332 36.5858 35.6142L35.6142 36.5858C34.8332 37.3668 33.5668 37.3668 32.7858 36.5858L20.4142 24.2142C19.6332 23.4332 18.3668 23.4332 17.5858 24.2142L5.21421 36.5858Z" fill="#FF882E"/>
</g>
</svg>
