<svg width="28" height="28" viewBox="0 0 28 28" fill="none" xmlns="http://www.w3.org/2000/svg">
<mask id="mask0_349_1265" style="mask-type:alpha" maskUnits="userSpaceOnUse" x="0" y="0" width="28" height="28">
<rect width="27.76" height="27.76" fill="#D9D9D9"/>
</mask>
<g mask="url(#mask0_349_1265)">
<path d="M12.2607 18.5066C12.2607 16.9451 12.4004 15.8222 12.68 15.1378C12.9595 14.4535 13.5523 13.7065 14.4583 12.8968C15.2487 12.2028 15.8512 11.6004 16.2656 11.0895C16.6801 10.5787 16.8873 9.9955 16.8873 9.34005C16.8873 8.54967 16.6223 7.89422 16.0921 7.37372C15.562 6.85322 14.8246 6.59297 13.88 6.59297C12.8968 6.59297 12.1498 6.89178 11.639 7.48939C11.1281 8.087 10.7666 8.69425 10.5546 9.31114L7.57617 8.0388C7.98101 6.80503 8.7232 5.73511 9.80276 4.82905C10.8823 3.923 12.2414 3.46997 13.88 3.46997C15.9042 3.46997 17.4609 4.03385 18.55 5.1616C19.6392 6.28935 20.1838 7.64361 20.1838 9.22439C20.1838 10.1883 19.9766 11.0124 19.5621 11.6968C19.1477 12.3811 18.497 13.1571 17.6103 14.0246C16.6656 14.9306 16.0921 15.6198 15.8897 16.0921C15.6873 16.5644 15.5861 17.3692 15.5861 18.5066H12.2607ZM13.88 25.4466C13.2438 25.4466 12.6992 25.2201 12.2462 24.7671C11.7932 24.3141 11.5667 23.7695 11.5667 23.1333C11.5667 22.4971 11.7932 21.9525 12.2462 21.4995C12.6992 21.0465 13.2438 20.82 13.88 20.82C14.5162 20.82 15.0608 21.0465 15.5138 21.4995C15.9668 21.9525 16.1933 22.4971 16.1933 23.1333C16.1933 23.7695 15.9668 24.3141 15.5138 24.7671C15.0608 25.2201 14.5162 25.4466 13.88 25.4466Z" fill="white"/>
</g>
</svg>
