<svg width="42" height="42" viewBox="0 0 42 42" fill="none" xmlns="http://www.w3.org/2000/svg">
<mask id="mask0_272_1296" style="mask-type:alpha" maskUnits="userSpaceOnUse" x="0" y="0" width="42" height="42">
<rect width="42" height="42" fill="#D9D9D9"/>
</mask>
<g mask="url(#mask0_272_1296)">
<path d="M32.6375 35.6125L33.8625 34.3875L30.625 31.15V26.25H28.875V31.85L32.6375 35.6125ZM19.25 3.98125C19.8042 3.66042 20.3875 3.5 21 3.5C21.6125 3.5 22.1958 3.66042 22.75 3.98125L35 11.025C35.5542 11.3458 35.9844 11.7688 36.2906 12.2937C36.5969 12.8188 36.75 13.4021 36.75 14.0437V21.4813C36.225 21.1021 35.6708 20.774 35.0875 20.4969C34.5042 20.2198 33.8917 19.9792 33.25 19.775V15.925L26.95 19.5562C25.3167 19.9646 23.8365 20.6573 22.5094 21.6344C21.1823 22.6115 20.0958 23.8 19.25 25.2V22.0063L8.75 15.925V27.9125L17.5875 33.0312C17.7042 33.9646 17.9229 34.8615 18.2438 35.7219C18.5646 36.5823 18.9729 37.3917 19.4688 38.15C19.4104 38.1208 19.374 38.099 19.3594 38.0844C19.3448 38.0698 19.3083 38.0479 19.25 38.0187L7 30.975C6.44583 30.6542 6.01562 30.2313 5.70938 29.7063C5.40313 29.1813 5.25 28.5979 5.25 27.9563V14.0437C5.25 13.4021 5.40313 12.8188 5.70938 12.2937C6.01562 11.7688 6.44583 11.3458 7 11.025L19.25 3.98125ZM21 7L10.6312 12.9938L21 18.9875L31.3687 12.9938L21 7ZM29.75 40.25C27.3292 40.25 25.2656 39.3969 23.5594 37.6906C21.8531 35.9844 21 33.9208 21 31.5C21 29.0792 21.8531 27.0156 23.5594 25.3094C25.2656 23.6031 27.3292 22.75 29.75 22.75C32.1708 22.75 34.2344 23.6031 35.9406 25.3094C37.6469 27.0156 38.5 29.0792 38.5 31.5C38.5 33.9208 37.6469 35.9844 35.9406 37.6906C34.2344 39.3969 32.1708 40.25 29.75 40.25Z" fill="#FF882E"/>
</g>
</svg>
