<svg width="25" height="25" viewBox="0 0 25 25" fill="none" xmlns="http://www.w3.org/2000/svg">
<mask id="mask0_680_8" style="mask-type:alpha" maskUnits="userSpaceOnUse" x="0" y="0" width="25" height="25">
<rect x="0.658203" y="0.923096" width="24" height="24" fill="#D9D9D9"/>
</mask>
<g mask="url(#mask0_680_8)">
<path d="M12.6582 12.9231C11.5582 12.9231 10.6165 12.5314 9.8332 11.7481C9.04987 10.9648 8.6582 10.0231 8.6582 8.9231C8.6582 7.8231 9.04987 6.88143 9.8332 6.0981C10.6165 5.31476 11.5582 4.9231 12.6582 4.9231C13.7582 4.9231 14.6999 5.31476 15.4832 6.0981C16.2665 6.88143 16.6582 7.8231 16.6582 8.9231C16.6582 10.0231 16.2665 10.9648 15.4832 11.7481C14.6999 12.5314 13.7582 12.9231 12.6582 12.9231ZM4.6582 20.9231V18.1231C4.6582 17.5564 4.80404 17.0356 5.0957 16.5606C5.38737 16.0856 5.77487 15.7231 6.2582 15.4731C7.29154 14.9564 8.34154 14.5689 9.4082 14.3106C10.4749 14.0523 11.5582 13.9231 12.6582 13.9231C13.7582 13.9231 14.8415 14.0523 15.9082 14.3106C16.9749 14.5689 18.0249 14.9564 19.0582 15.4731C19.5415 15.7231 19.929 16.0856 20.2207 16.5606C20.5124 17.0356 20.6582 17.5564 20.6582 18.1231V20.9231H4.6582Z" fill="#F28736"/>
</g>
</svg>
