<svg width="29" height="28" viewBox="0 0 29 28" fill="none" xmlns="http://www.w3.org/2000/svg">
<mask id="mask0_351_1331" style="mask-type:alpha" maskUnits="userSpaceOnUse" x="0" y="0" width="29" height="28">
<rect x="0.40625" y="0.233032" width="27.6687" height="27.6687" fill="#D9D9D9"/>
</mask>
<g mask="url(#mask0_351_1331)">
<path d="M5.01764 23.2903C4.38356 23.2903 3.84076 23.0645 3.38922 22.6129C2.93768 22.1614 2.71191 21.6186 2.71191 20.9845V7.1502C2.71191 6.51613 2.93768 5.97333 3.38922 5.52179C3.84076 5.07025 4.38356 4.84448 5.01764 4.84448H23.4634C24.0975 4.84448 24.6403 5.07025 25.0918 5.52179C25.5434 5.97333 25.7691 6.51613 25.7691 7.1502V20.9845C25.7691 21.6186 25.5434 22.1614 25.0918 22.6129C24.6403 23.0645 24.0975 23.2903 23.4634 23.2903H5.01764ZM14.2405 15.2202L23.4634 9.45592V7.1502L14.2405 12.9145L5.01764 7.1502V9.45592L14.2405 15.2202Z" fill="white"/>
</g>
</svg>
