<svg width="28" height="28" viewBox="0 0 28 28" fill="none" xmlns="http://www.w3.org/2000/svg">
<mask id="mask0_203_987" style="mask-type:alpha" maskUnits="userSpaceOnUse" x="0" y="0" width="28" height="28">
<rect width="28" height="28" fill="#D9D9D9"/>
</mask>
<g mask="url(#mask0_203_987)">
<path d="M4.66699 22.6739V20.3406H7.00033V12.1739C7.00033 10.56 7.48644 9.12599 8.45866 7.87183C9.43088 6.61766 10.6948 5.79613 12.2503 5.40724V4.59058C12.2503 4.10447 12.4205 3.69127 12.7607 3.35099C13.101 3.01072 13.5142 2.84058 14.0003 2.84058C14.4864 2.84058 14.8996 3.01072 15.2399 3.35099C15.5802 3.69127 15.7503 4.10447 15.7503 4.59058V5.40724C17.3059 5.79613 18.5698 6.61766 19.542 7.87183C20.5142 9.12599 21.0003 10.56 21.0003 12.1739V20.3406H23.3337V22.6739H4.66699ZM14.0003 26.1739C13.3587 26.1739 12.8094 25.9454 12.3524 25.4885C11.8955 25.0315 11.667 24.4822 11.667 23.8406H16.3337C16.3337 24.4822 16.1052 25.0315 15.6482 25.4885C15.1913 25.9454 14.642 26.1739 14.0003 26.1739Z" fill="white"/>
</g>
</svg>
