<svg width="25" height="25" viewBox="0 0 25 25" fill="none" xmlns="http://www.w3.org/2000/svg">
<mask id="mask0_680_14" style="mask-type:alpha" maskUnits="userSpaceOnUse" x="0" y="0" width="25" height="25">
<rect x="0.835938" y="0.345703" width="24" height="24" fill="#D9D9D9"/>
</mask>
<g mask="url(#mask0_680_14)">
<path d="M6.83594 22.3457C6.28594 22.3457 5.8151 22.1499 5.42344 21.7582C5.03177 21.3665 4.83594 20.8957 4.83594 20.3457V10.3457C4.83594 9.7957 5.03177 9.32487 5.42344 8.9332C5.8151 8.54154 6.28594 8.3457 6.83594 8.3457H7.83594V6.3457C7.83594 4.96237 8.32344 3.7832 9.29844 2.8082C10.2734 1.8332 11.4526 1.3457 12.8359 1.3457C14.2193 1.3457 15.3984 1.8332 16.3734 2.8082C17.3484 3.7832 17.8359 4.96237 17.8359 6.3457V8.3457H18.8359C19.3859 8.3457 19.8568 8.54154 20.2484 8.9332C20.6401 9.32487 20.8359 9.7957 20.8359 10.3457V20.3457C20.8359 20.8957 20.6401 21.3665 20.2484 21.7582C19.8568 22.1499 19.3859 22.3457 18.8359 22.3457H6.83594ZM12.8359 17.3457C13.3859 17.3457 13.8568 17.1499 14.2484 16.7582C14.6401 16.3665 14.8359 15.8957 14.8359 15.3457C14.8359 14.7957 14.6401 14.3249 14.2484 13.9332C13.8568 13.5415 13.3859 13.3457 12.8359 13.3457C12.2859 13.3457 11.8151 13.5415 11.4234 13.9332C11.0318 14.3249 10.8359 14.7957 10.8359 15.3457C10.8359 15.8957 11.0318 16.3665 11.4234 16.7582C11.8151 17.1499 12.2859 17.3457 12.8359 17.3457ZM9.83594 8.3457H15.8359V6.3457C15.8359 5.51237 15.5443 4.80404 14.9609 4.2207C14.3776 3.63737 13.6693 3.3457 12.8359 3.3457C12.0026 3.3457 11.2943 3.63737 10.7109 4.2207C10.1276 4.80404 9.83594 5.51237 9.83594 6.3457V8.3457Z" fill="#FF7E36"/>
</g>
</svg>
