<svg width="25" height="18" viewBox="0 0 25 18" fill="none" xmlns="http://www.w3.org/2000/svg">
<path d="M5.39067 18C4.89646 18 4.47351 17.8237 4.12162 17.4713C3.76973 17.1188 3.59378 16.695 3.59378 16.2C3.59378 15.705 3.76973 15.2812 4.12162 14.9287C4.47351 14.5763 4.89646 14.4 5.39067 14.4C5.88487 14.4 6.30777 14.5763 6.65976 14.9287C7.01163 15.2812 7.18756 15.705 7.18756 16.2C7.18756 16.695 7.01163 17.1188 6.65976 17.4713C6.30777 17.8237 5.88487 18 5.39067 18ZM14.3751 18C13.8809 18 13.4579 17.8237 13.106 17.4713C12.7542 17.1188 12.5782 16.695 12.5782 16.2C12.5782 15.705 12.7542 15.2812 13.106 14.9287C13.4579 14.5763 13.8809 14.4 14.3751 14.4C14.8692 14.4 15.2923 14.5763 15.6441 14.9287C15.9961 15.2812 16.172 15.705 16.172 16.2C16.172 16.695 15.9961 17.1188 15.6441 17.4713C15.2923 17.8237 14.8692 18 14.3751 18ZM4.62699 3.6L6.78325 8.1H13.0723L15.5431 3.6H4.62699ZM3.77347 1.8H17.0255C17.37 1.8 17.6319 1.95375 17.8117 2.26125C17.9914 2.56875 17.9988 2.88 17.8342 3.195L14.6447 8.955C14.4799 9.25496 14.2591 9.48754 13.982 9.6525C13.705 9.81746 13.4017 9.9 13.0723 9.9H6.37894L5.39067 11.7H16.172V13.5H5.39067C4.71681 13.5 4.20771 13.2038 3.86331 12.6112C3.51891 12.0187 3.50393 11.43 3.81839 10.845L5.03124 8.64L1.79689 1.8H0V0H2.91994L3.77347 1.8Z" fill="white"/>
<path d="M23.675 15.5187L23.7657 15.6096L23.8563 15.5187L24.4547 14.9187L24.5455 14.8278L24.4547 14.7369L21.8412 12.1163C21.9888 11.9127 22.1077 11.6842 22.1979 11.4319C22.303 11.1387 22.3551 10.8274 22.3551 10.4993C22.3551 9.68736 22.0732 8.99552 21.5107 8.4316C20.9483 7.86756 20.2583 7.58496 19.4485 7.58496C18.6388 7.58496 17.9488 7.86756 17.3863 8.4316C16.8239 8.99552 16.5419 9.68736 16.5419 10.4993C16.5419 11.3111 16.8239 12.0029 17.3863 12.567C17.9488 13.1309 18.6388 13.4135 19.4485 13.4135C19.7758 13.4135 20.0862 13.3613 20.3789 13.256C20.6304 13.1653 20.8582 13.0463 21.0614 12.8982L23.675 15.5187ZM20.7203 11.7745C20.3706 12.1251 19.9493 12.2993 19.4485 12.2993C18.9479 12.2993 18.5264 12.1251 18.1768 11.7745C17.8271 11.4238 17.6533 11.0012 17.6533 10.4993C17.6533 9.99722 17.8271 9.57473 18.1768 9.22412C18.5264 8.8735 18.9479 8.69929 19.4485 8.69929C19.9493 8.69929 20.3706 8.8735 20.7203 9.22412C21.07 9.57473 21.2438 9.99722 21.2438 10.4993C21.2438 11.0012 21.07 11.4238 20.7203 11.7745Z" fill="white" stroke="white" stroke-width="0.278601"/>
</svg>
