<svg width="25" height="25" viewBox="0 0 25 25" fill="none" xmlns="http://www.w3.org/2000/svg">
<mask id="mask0_684_20" style="mask-type:alpha" maskUnits="userSpaceOnUse" x="0" y="0" width="25" height="25">
<rect x="0.609375" y="0.041748" width="24" height="24" fill="#D9D9D9"/>
</mask>
<g mask="url(#mask0_684_20)">
<path d="M11.6094 16.0417V7.89175L9.00938 10.4917L7.60938 9.04175L12.6094 4.04175L17.6094 9.04175L16.2094 10.4917L13.6094 7.89175V16.0417H11.6094ZM6.60938 20.0417C6.05937 20.0417 5.58854 19.8459 5.19688 19.4542C4.80521 19.0626 4.60938 18.5917 4.60938 18.0417V15.0417H6.60938V18.0417H18.6094V15.0417H20.6094V18.0417C20.6094 18.5917 20.4135 19.0626 20.0219 19.4542C19.6302 19.8459 19.1594 20.0417 18.6094 20.0417H6.60938Z" fill="#FF7E36"/>
</g>
</svg>
