<svg width="24" height="24" viewBox="0 0 24 24" fill="none" xmlns="http://www.w3.org/2000/svg">
<mask id="mask0_380_1256" style="mask-type:alpha" maskUnits="userSpaceOnUse" x="0" y="0" width="24" height="24">
<rect width="24" height="24" fill="#D9D9D9"/>
</mask>
<g mask="url(#mask0_380_1256)">
<path d="M15.9 21.8996L14.475 20.4746C15.575 19.3746 16.4375 18.1038 17.0625 16.6621C17.6875 15.2204 18 13.6663 18 11.9996C18 10.3329 17.6875 8.77878 17.0625 7.33711C16.4375 5.89544 15.575 4.62461 14.475 3.52461L15.9 2.09961C17.1667 3.36628 18.1667 4.84544 18.9 6.53711C19.6333 8.22878 20 10.0496 20 11.9996C20 13.9496 19.6333 15.7704 18.9 17.4621C18.1667 19.1538 17.1667 20.6329 15.9 21.8996ZM13.075 19.0746L11.65 17.6496C12.3833 16.9163 12.9583 16.0663 13.375 15.0996C13.7917 14.1329 14 13.0996 14 11.9996C14 10.8996 13.7917 9.86628 13.375 8.89961C12.9583 7.93294 12.3833 7.08294 11.65 6.34961L13.075 4.92461C13.975 5.82461 14.6875 6.88294 15.2125 8.09961C15.7375 9.31628 16 10.6163 16 11.9996C16 13.3829 15.7375 14.6829 15.2125 15.8996C14.6875 17.1163 13.975 18.1746 13.075 19.0746ZM10.25 16.2496L8.825 14.8246C9.19167 14.4579 9.47917 14.0329 9.6875 13.5496C9.89583 13.0663 10 12.5496 10 11.9996C10 11.4496 9.89583 10.9329 9.6875 10.4496C9.47917 9.96628 9.19167 9.54128 8.825 9.17461L10.25 7.74961C10.7833 8.28294 11.2083 8.91628 11.525 9.64961C11.8417 10.3829 12 11.1663 12 11.9996C12 12.8329 11.8417 13.6163 11.525 14.3496C11.2083 15.0829 10.7833 15.7163 10.25 16.2496ZM4 19.9996V3.99961H6V9.99961C6.55 9.99961 7.02083 10.1954 7.4125 10.5871C7.80417 10.9788 8 11.4496 8 11.9996C8 12.5496 7.80417 13.0204 7.4125 13.4121C7.02083 13.8038 6.55 13.9996 6 13.9996V19.9996H4Z" fill="#FF882E"/>
</g>
</svg>
