<svg width="17" height="17" viewBox="0 0 17 17" fill="none" xmlns="http://www.w3.org/2000/svg">
<mask id="mask0_375_439" style="mask-type:alpha" maskUnits="userSpaceOnUse" x="0" y="0" width="17" height="17">
<rect width="17" height="17" fill="#D9D9D9"/>
</mask>
<g mask="url(#mask0_375_439)">
<path d="M8.14583 13.4583H8.85417V12.1479L11.3333 9.66875V6.375H5.66667V9.66875L8.14583 12.1479V13.4583ZM6.72917 14.875V12.75L4.25 10.2708V6.375C4.25 5.98542 4.38872 5.65191 4.66615 5.37448C4.94358 5.09705 5.27708 4.95833 5.66667 4.95833H6.375L5.66667 5.66667V2.125H7.08333V4.95833H9.91667V2.125H11.3333V5.66667L10.625 4.95833H11.3333C11.7229 4.95833 12.0564 5.09705 12.3339 5.37448C12.6113 5.65191 12.75 5.98542 12.75 6.375V10.2708L10.2708 12.75V14.875H6.72917Z" fill="#FF882E"/>
</g>
</svg>
