<svg width="40" height="40" viewBox="0 0 40 40" fill="none" xmlns="http://www.w3.org/2000/svg">
<rect width="40" height="40" rx="9.41177" fill="#FFDA86" fill-opacity="0.2"/>
<mask id="mask0_307_25" style="mask-type:alpha" maskUnits="userSpaceOnUse" x="1" y="1" width="38" height="38">
<rect x="1" y="1" width="38" height="38" rx="11.9216" fill="#FFDA86"/>
</mask>
<g mask="url(#mask0_307_25)">
<path d="M14.7354 18.338C13.7406 18.338 12.8915 17.9863 12.1882 17.2831C11.485 16.5798 11.1333 15.7307 11.1333 14.7359C11.1333 13.741 11.485 12.8919 12.1882 12.1887C12.8915 11.4854 13.7406 11.1338 14.7354 11.1338C15.7303 11.1338 16.5793 11.4854 17.2826 12.1887C17.9859 12.8919 18.3375 13.741 18.3375 14.7359C18.3375 15.7307 17.9859 16.5798 17.2826 17.2831C16.5793 17.9863 15.7303 18.338 14.7354 18.338ZM14.7354 16.2796C15.1642 16.2796 15.5287 16.1295 15.8289 15.8294C16.1291 15.5292 16.2792 15.1647 16.2792 14.7359C16.2792 14.3071 16.1291 13.9426 15.8289 13.6424C15.5287 13.3422 15.1642 13.1921 14.7354 13.1921C14.3066 13.1921 13.9421 13.3422 13.6419 13.6424C13.3418 13.9426 13.1917 14.3071 13.1917 14.7359C13.1917 15.1647 13.3418 15.5292 13.6419 15.8294C13.9421 16.1295 14.3066 16.2796 14.7354 16.2796ZM23.9979 27.6005C23.0031 27.6005 22.154 27.2488 21.4507 26.5456C20.7475 25.8423 20.3958 24.9932 20.3958 23.9984C20.3958 23.0035 20.7475 22.1544 21.4507 21.4512C22.154 20.7479 23.0031 20.3963 23.9979 20.3963C24.9928 20.3963 25.8418 20.7479 26.5451 21.4512C27.2484 22.1544 27.6 23.0035 27.6 23.9984C27.6 24.9932 27.2484 25.8423 26.5451 26.5456C25.8418 27.2488 24.9928 27.6005 23.9979 27.6005ZM23.9979 25.5421C24.4267 25.5421 24.7912 25.392 25.0914 25.0919C25.3916 24.7917 25.5417 24.4272 25.5417 23.9984C25.5417 23.5696 25.3916 23.2051 25.0914 22.9049C24.7912 22.6047 24.4267 22.4546 23.9979 22.4546C23.5691 22.4546 23.2046 22.6047 22.9044 22.9049C22.6043 23.2051 22.4542 23.5696 22.4542 23.9984C22.4542 24.4272 22.6043 24.7917 22.9044 25.0919C23.2046 25.392 23.5691 25.5421 23.9979 25.5421ZM13.2946 26.88C12.8967 27.2779 12.2516 27.2779 11.8537 26.88C11.4559 26.4822 11.4559 25.8371 11.8538 25.4392L25.4388 11.8542C25.8366 11.4563 26.4817 11.4563 26.8796 11.8542C27.2775 12.2521 27.2775 12.8972 26.8796 13.295L13.2946 26.88Z" fill="#FFDA86"/>
</g>
</svg>
