<svg width="40" height="40" viewBox="0 0 40 40" fill="none" xmlns="http://www.w3.org/2000/svg">
<rect width="40" height="40" rx="9.41177" fill="#A32EFF" fill-opacity="0.2"/>
<path fill-rule="evenodd" clip-rule="evenodd" d="M10.0778 30.6684C10.3645 30.8895 10.682 31 11.0302 31H28.2348C28.583 31 28.9005 30.8895 29.1872 30.6684C29.474 30.4474 29.6685 30.1579 29.771 29.8L33.2119 17.0421C33.3143 16.7474 33.2682 16.4737 33.0736 16.2211C32.8791 15.9684 32.6179 15.8421 32.2902 15.8421H26.0228L20.6156 7.56842C20.5132 7.4 20.3698 7.26316 20.1855 7.15789C20.0012 7.05263 19.8066 7 19.6018 7C19.397 7 19.2024 7.05263 19.018 7.15789C18.8337 7.26316 18.6903 7.4 18.5879 7.56842L13.1807 15.8421H6.97477C6.64706 15.8421 6.38592 15.9684 6.19134 16.2211C5.99677 16.4737 5.95068 16.7474 6.05309 17.0421L9.49403 29.8C9.59643 30.1579 9.79101 30.4474 10.0778 30.6684ZM27.6204 28.4737H11.6446L8.94102 18.3684H30.324L27.6204 28.4737ZM23.0734 15.8421H16.1608L19.6018 10.5368L23.0734 15.8421Z" fill="#A32EFF"/>
</svg>
