<svg width="40" height="40" viewBox="0 0 40 40" fill="none" xmlns="http://www.w3.org/2000/svg">
<rect width="40" height="40" rx="9.41177" fill="#004891" fill-opacity="0.2"/>
<mask id="mask0_307_18" style="mask-type:alpha" maskUnits="userSpaceOnUse" x="4" y="3" width="34" height="34">
<rect x="4.70581" y="3.5293" width="32.9412" height="32.9412" fill="#004891"/>
</mask>
<g mask="url(#mask0_307_18)">
<path d="M25.5728 22.8429C26.1899 22.8429 26.7002 22.6299 27.1037 22.204C27.5072 21.7781 27.709 21.2394 27.709 20.588C27.709 19.9366 27.5072 19.3979 27.1037 18.972C26.7002 18.5461 26.1899 18.3331 25.5728 18.3331C24.9556 18.3331 24.4453 18.5461 24.0418 18.972C23.6383 19.3979 23.4365 19.9366 23.4365 20.588C23.4365 21.2394 23.6383 21.7781 24.0418 22.204C24.4453 22.6299 24.9556 22.8429 25.5728 22.8429ZM9.90714 34.1174C9.12385 34.1174 8.45332 33.823 7.89553 33.2342C7.33773 32.6455 7.05884 31.9377 7.05884 31.1109V10.0651C7.05884 9.23833 7.33773 8.53054 7.89553 7.94176C8.45332 7.35298 9.12385 7.05859 9.90714 7.05859H29.8452C30.6285 7.05859 31.299 7.35298 31.8568 7.94176C32.4146 8.53054 32.6935 9.23833 32.6935 10.0651V13.8233H29.8452V10.0651H9.90714V31.1109H29.8452V27.3527H32.6935V31.1109C32.6935 31.9377 32.4146 32.6455 31.8568 33.2342C31.299 33.823 30.6285 34.1174 29.8452 34.1174H9.90714ZM21.3003 28.1043C20.517 28.1043 19.8465 27.81 19.2887 27.2212C18.7309 26.6324 18.452 25.9246 18.452 25.0978V16.0782C18.452 15.2514 18.7309 14.5436 19.2887 13.9548C19.8465 13.3661 20.517 13.0717 21.3003 13.0717H31.2694C32.0526 13.0717 32.7232 13.3661 33.281 13.9548C33.8388 14.5436 34.1177 15.2514 34.1177 16.0782V25.0978C34.1177 25.9246 33.8388 26.6324 33.281 27.2212C32.7232 27.81 32.0526 28.1043 31.2694 28.1043H21.3003ZM31.2694 25.0978V16.0782H21.3003V25.0978H31.2694Z" fill="#004891"/>
</g>
</svg>
