<svg width="46" height="46" viewBox="0 0 46 46" fill="none" xmlns="http://www.w3.org/2000/svg">
<rect width="46" height="46" rx="10.8235" fill="#F28836" fill-opacity="0.2"/>
<mask id="mask0_321_27" style="mask-type:alpha" maskUnits="userSpaceOnUse" x="9" y="9" width="28" height="28">
<rect x="9.19995" y="9.19995" width="27.6" height="27.6" fill="#D9D9D9"/>
</mask>
<g mask="url(#mask0_321_27)">
<path d="M18.4 29.9H27.6V27.6H18.4V29.9ZM18.4 25.3H27.6V23H18.4V25.3ZM16.1 34.5C15.4675 34.5 14.926 34.2748 14.4756 33.8244C14.0252 33.374 13.8 32.8325 13.8 32.2V13.8C13.8 13.1675 14.0252 12.626 14.4756 12.1756C14.926 11.7252 15.4675 11.5 16.1 11.5H25.3L32.2 18.4V32.2C32.2 32.8325 31.9748 33.374 31.5244 33.8244C31.0739 34.2748 30.5325 34.5 29.9 34.5H16.1ZM24.15 19.55V13.8H16.1V32.2H29.9V19.55H24.15Z" fill="#FF882E"/>
</g>
</svg>
