<svg width="40" height="40" viewBox="0 0 40 40" fill="none" xmlns="http://www.w3.org/2000/svg">
<rect width="40" height="40" rx="9.41177" fill="#F79348" fill-opacity="0.2"/>
<path d="M10.3692 31C9.71769 31 9.15994 30.7606 8.69596 30.2819C8.23199 29.8032 8 29.2278 8 28.5556V11.4444C8 10.7722 8.23199 10.1968 8.69596 9.71806C9.15994 9.23935 9.71769 9 10.3692 9H29.3231C29.9746 9 30.5324 9.23935 30.9963 9.71806C31.4603 10.1968 31.6923 10.7722 31.6923 11.4444V28.5556C31.6923 29.2278 31.4603 29.8032 30.9963 30.2819C30.5324 30.7606 29.9746 31 29.3231 31H10.3692ZM10.3692 28.5556H29.3231V11.4444H10.3692V28.5556ZM12.7385 26.1111H26.9538V23.6667H12.7385V26.1111ZM12.7385 21.2222H17.4769V13.8889H12.7385V21.2222ZM19.8462 21.2222H26.9538V18.7778H19.8462V21.2222ZM19.8462 16.3333H26.9538V13.8889H19.8462V16.3333Z" fill="#FF882E"/>
</svg>
