<svg width="40" height="40" viewBox="0 0 40 40" fill="none" xmlns="http://www.w3.org/2000/svg">
<rect width="40" height="40" rx="9.41177" fill="#1D9100" fill-opacity="0.2"/>
<mask id="mask0_307_23" style="mask-type:alpha" maskUnits="userSpaceOnUse" x="6" y="6" width="28" height="28">
<rect x="6" y="6" width="28" height="28" rx="9.41177" fill="#1D9100"/>
</mask>
<g mask="url(#mask0_307_23)">
<path d="M13 25.8337C12.3557 25.8337 11.8333 25.3113 11.8333 24.667V18.8337C11.8333 18.1893 12.3557 17.667 13 17.667V17.667C13.6443 17.667 14.1667 18.1893 14.1667 18.8337V24.667C14.1667 25.3113 13.6443 25.8337 13 25.8337V25.8337ZM20 25.8337C19.3557 25.8337 18.8333 25.3113 18.8333 24.667V18.8337C18.8333 18.1893 19.3557 17.667 20 17.667V17.667C20.6443 17.667 21.1667 18.1893 21.1667 18.8337V24.667C21.1667 25.3113 20.6443 25.8337 20 25.8337V25.8337ZM9.5 30.5003C8.85567 30.5003 8.33333 29.978 8.33333 29.3337V29.3337C8.33333 28.6893 8.85567 28.167 9.5 28.167H30.5C31.1443 28.167 31.6667 28.6893 31.6667 29.3337V29.3337C31.6667 29.978 31.1443 30.5003 30.5 30.5003H9.5ZM27 25.8337C26.3557 25.8337 25.8333 25.3113 25.8333 24.667V18.8337C25.8333 18.1893 26.3557 17.667 27 17.667V17.667C27.6443 17.667 28.1667 18.1893 28.1667 18.8337V24.667C28.1667 25.3113 27.6443 25.8337 27 25.8337V25.8337ZM9.77541 15.3337C8.97898 15.3337 8.33333 14.688 8.33333 13.8916V13.8916C8.33333 13.3454 8.64194 12.846 9.1305 12.6017L15.7909 9.27153C18.4406 7.94669 21.5594 7.94669 24.2091 9.27153L30.8695 12.6017C31.3581 12.846 31.6667 13.3454 31.6667 13.8916V13.8916C31.6667 14.688 31.021 15.3337 30.2246 15.3337H9.77541ZM19.3268 10.1255C17.8906 10.8372 18.3971 13.0003 20 13.0003V13.0003C21.6029 13.0003 22.1094 10.8372 20.6732 10.1255V10.1255C20.249 9.91537 19.751 9.91537 19.3268 10.1255V10.1255Z" fill="#1D9100"/>
</g>
</svg>
