<svg width="46" height="46" viewBox="0 0 46 46" fill="none" xmlns="http://www.w3.org/2000/svg">
<g clip-path="url(#clip0_85_15)">
<path d="M35.1765 0H10.8235C4.84585 0 0 4.84585 0 10.8235V35.1765C0 41.1542 4.84585 46 10.8235 46H35.1765C41.1542 46 46 41.1542 46 35.1765V10.8235C46 4.84585 41.1542 0 35.1765 0Z" fill="#F28836" fill-opacity="0.2"/>
<mask id="mask0_85_15" style="mask-type:alpha" maskUnits="userSpaceOnUse" x="9" y="9" width="28" height="28">
<rect x="9" y="9" width="28" height="28" fill="#D9D9D9"/>
</mask>
<g mask="url(#mask0_85_15)">
<path d="M23 33.5C20.3167 33.5 17.9785 32.6104 15.9854 30.8313C13.9924 29.0521 12.85 26.8306 12.5583 24.1667H14.95C15.2222 26.1889 16.1215 27.8611 17.6479 29.1833C19.1743 30.5056 20.9583 31.1667 23 31.1667C25.275 31.1667 27.2049 30.3743 28.7896 28.7896C30.3743 27.2049 31.1667 25.275 31.1667 23C31.1667 20.725 30.3743 18.7951 28.7896 17.2104C27.2049 15.6257 25.275 14.8333 23 14.8333C21.6583 14.8333 20.4042 15.1444 19.2375 15.7667C18.0708 16.3889 17.0889 17.2444 16.2917 18.3333H19.5V20.6667H12.5V13.6667H14.8333V16.4083C15.825 15.1639 17.0354 14.2014 18.4646 13.5208C19.8937 12.8403 21.4056 12.5 23 12.5C24.4583 12.5 25.8243 12.7771 27.0979 13.3313C28.3715 13.8854 29.4799 14.634 30.4229 15.5771C31.366 16.5201 32.1146 17.6285 32.6687 18.9021C33.2229 20.1757 33.5 21.5417 33.5 23C33.5 24.4583 33.2229 25.8243 32.6687 27.0979C32.1146 28.3715 31.366 29.4799 30.4229 30.4229C29.4799 31.366 28.3715 32.1146 27.0979 32.6687C25.8243 33.2229 24.4583 33.5 23 33.5ZM26.2667 27.9L21.8333 23.4667V17.1667H24.1667V22.5333L27.9 26.2667L26.2667 27.9Z" fill="#FF882E"/>
</g>
</g>
<defs>
<clipPath id="clip0_85_15">
<rect width="46" height="46" fill="white"/>
</clipPath>
</defs>
</svg>
