<svg width="46" height="46" viewBox="0 0 46 46" fill="none" xmlns="http://www.w3.org/2000/svg">
<g clip-path="url(#clip0_85_52)">
<path d="M35.1765 0H10.8235C4.84586 0 0 4.84586 0 10.8235V35.1765C0 41.1541 4.84586 46 10.8235 46H35.1765C41.1541 46 46 41.1541 46 35.1765V10.8235C46 4.84586 41.1541 0 35.1765 0Z" fill="#FF0000" fill-opacity="0.2"/>
<mask id="mask0_85_52" style="mask-type:alpha" maskUnits="userSpaceOnUse" x="7" y="7" width="32" height="32">
<rect x="7" y="7" width="32" height="32" fill="#D9D9D9"/>
</mask>
<g mask="url(#mask0_85_52)">
<path d="M15.5337 32.3327L13.667 30.466L21.1337 22.9993L13.667 15.5327L15.5337 13.666L23.0003 21.1327L30.467 13.666L32.3337 15.5327L24.867 22.9993L32.3337 30.466L30.467 32.3327L23.0003 24.866L15.5337 32.3327Z" fill="#FF0000"/>
</g>
</g>
<defs>
<clipPath id="clip0_85_52">
<rect width="46" height="46" fill="white"/>
</clipPath>
</defs>
</svg>
