<svg width="30" height="30" viewBox="0 0 30 30" fill="none" xmlns="http://www.w3.org/2000/svg">
<path d="M9.86981 21.8874C9.51503 21.8874 9.2114 21.7612 8.95879 21.5089C8.70618 21.2565 8.57987 20.9531 8.57987 20.5987C8.57987 20.2443 8.70618 19.9409 8.95879 19.6885C9.2114 19.4362 9.51503 19.3099 9.86981 19.3099C10.2246 19.3099 10.5282 19.4362 10.7809 19.6885C11.0334 19.9409 11.1597 20.2443 11.1597 20.5987C11.1597 20.9531 11.0334 21.2565 10.7809 21.5089C10.5282 21.7612 10.2246 21.8874 9.86981 21.8874ZM16.3195 21.8874C15.9647 21.8874 15.6611 21.7612 15.4085 21.5089C15.1559 21.2565 15.0296 20.9531 15.0296 20.5987C15.0296 20.2443 15.1559 19.9409 15.4085 19.6885C15.6611 19.4362 15.9647 19.3099 16.3195 19.3099C16.6742 19.3099 16.9779 19.4362 17.2305 19.6885C17.4832 19.9409 17.6094 20.2443 17.6094 20.5987C17.6094 20.9531 17.4832 21.2565 17.2305 21.5089C16.9779 21.7612 16.6742 21.8874 16.3195 21.8874ZM9.32158 11.5775L10.8695 14.7993H15.3842L17.1579 11.5775H9.32158ZM8.70887 10.2887H18.2222C18.4694 10.2887 18.6575 10.3988 18.7865 10.619C18.9155 10.8391 18.9208 11.062 18.8026 11.2875L16.513 15.4115C16.3947 15.6263 16.2362 15.7928 16.0373 15.9109C15.8384 16.029 15.6207 16.0881 15.3842 16.0881H10.5793L9.86981 17.3768H17.6094V18.6656H9.86981C9.38607 18.6656 9.0206 18.4535 8.77336 18.0292C8.52612 17.605 8.51537 17.1835 8.74111 16.7647L9.61178 15.186L7.28993 10.2887H6V9H8.09614L8.70887 10.2887Z" fill="#FF882E"/>
<path d="M22.9956 20.1115L23.0607 20.1766L23.1258 20.1115L23.5553 19.6819L23.6205 19.6168L23.5553 19.5517L21.6792 17.6755C21.7851 17.5297 21.8705 17.3661 21.9353 17.1855C22.0107 16.9755 22.0481 16.7526 22.0481 16.5177C22.0481 15.9364 21.8457 15.4411 21.442 15.0373C21.0382 14.6335 20.5429 14.4312 19.9616 14.4312C19.3803 14.4312 18.8849 14.6335 18.4812 15.0373C18.0774 15.4411 17.875 15.9364 17.875 16.5177C17.875 17.0989 18.0774 17.5943 18.4812 17.9981C18.8849 18.4019 19.3803 18.6042 19.9616 18.6042C20.1965 18.6042 20.4193 18.5668 20.6294 18.4914C20.81 18.4265 20.9735 18.3413 21.1194 18.2352L22.9956 20.1115ZM20.8746 17.4307C20.6235 17.6817 20.321 17.8065 19.9616 17.8065C19.6022 17.8065 19.2996 17.6817 19.0486 17.4307C18.7976 17.1797 18.6728 16.8771 18.6728 16.5177C18.6728 16.1583 18.7976 15.8558 19.0486 15.6047C19.2996 15.3537 19.6022 15.229 19.9616 15.229C20.321 15.229 20.6235 15.3537 20.8746 15.6047C21.1256 15.8558 21.2503 16.1583 21.2503 16.5177C21.2503 16.8771 21.1256 17.1797 20.8746 17.4307Z" fill="#FF882E" stroke="#FF882E" stroke-width="0.2"/>
</svg>
