<svg width="24" height="24" viewBox="0 0 24 24" fill="none" xmlns="http://www.w3.org/2000/svg">
<mask id="mask0_339_1235" style="mask-type:alpha" maskUnits="userSpaceOnUse" x="0" y="0" width="24" height="24">
<rect width="24" height="24" fill="#D9D9D9"/>
</mask>
<g mask="url(#mask0_339_1235)">
<path d="M12.2222 9.33333V5H18V9.33333H12.2222ZM5 12.2222V5H10.7778V12.2222H5ZM12.2222 18V10.7778H18V18H12.2222ZM5 18V13.6667H10.7778V18H5ZM6.44444 10.7778H9.33333V6.44444H6.44444V10.7778ZM13.6667 16.5556H16.5556V12.2222H13.6667V16.5556ZM13.6667 7.88889H16.5556V6.44444H13.6667V7.88889ZM6.44444 16.5556H9.33333V15.1111H6.44444V16.5556Z" fill="#FF882E"/>
<path d="M6.44444 10.7778H9.33333V6.44444H6.44444V10.7778Z" fill="#FF882E"/>
<path d="M13.6667 7.88889H16.5556V6.44444H13.6667V7.88889Z" fill="#FF882E"/>
<path d="M13.6667 16.5556H16.5556V12.2222H13.6667V16.5556Z" fill="#FF882E"/>
<path d="M6.44444 16.5556H9.33333V15.1111H6.44444V16.5556Z" fill="#FF882E"/>
</g>
</svg>
