<svg width="32" height="27" viewBox="0 0 32 27" fill="none" xmlns="http://www.w3.org/2000/svg">
<path fill-rule="evenodd" clip-rule="evenodd" d="M5.33734 26.627C5.65993 26.8757 6.01708 27 6.40879 27H25.764C26.1558 27 26.5129 26.8757 26.8355 26.627C27.1581 26.3783 27.377 26.0526 27.4922 25.65L31.3632 11.2974C31.4785 10.9658 31.4266 10.6579 31.2077 10.3737C30.9888 10.0895 30.695 9.94737 30.3264 9.94737H23.2755L17.1924 0.639474C17.0772 0.45 16.9159 0.296053 16.7086 0.177632C16.5012 0.0592105 16.2823 0 16.0519 0C15.8214 0 15.6025 0.0592105 15.3952 0.177632C15.1878 0.296053 15.0265 0.45 14.9113 0.639474L8.8282 9.94737H1.84648C1.47781 9.94737 1.18402 10.0895 0.965125 10.3737C0.746226 10.6579 0.694381 10.9658 0.809591 11.2974L4.68064 25.65C4.79585 26.0526 5.01475 26.3783 5.33734 26.627ZM19.9575 9.94737H12.1808L16.0519 3.97895L19.9575 9.94737Z" fill="#FF882E"/>
</svg>
