<svg width="17" height="17" viewBox="0 0 17 17" fill="none" xmlns="http://www.w3.org/2000/svg">
<mask id="mask0_375_589" style="mask-type:alpha" maskUnits="userSpaceOnUse" x="0" y="0" width="17" height="17">
<rect width="17" height="17" fill="#D9D9D9"/>
</mask>
<g mask="url(#mask0_375_589)">
<path d="M3.54167 14.875C3.15208 14.875 2.81858 14.7363 2.54115 14.4589C2.26372 14.1814 2.125 13.8479 2.125 13.4583V3.54167C2.125 3.15208 2.26372 2.81858 2.54115 2.54115C2.81858 2.26372 3.15208 2.125 3.54167 2.125H13.4583C13.8479 2.125 14.1814 2.26372 14.4589 2.54115C14.7363 2.81858 14.875 3.15208 14.875 3.54167V13.4583C14.875 13.8479 14.7363 14.1814 14.4589 14.4589C14.1814 14.7363 13.8479 14.875 13.4583 14.875H3.54167ZM3.54167 13.4583H13.4583V3.54167H3.54167V13.4583Z" fill="#FF882E"/>
</g>
</svg>
