<svg width="28" height="28" viewBox="0 0 28 28" fill="none" xmlns="http://www.w3.org/2000/svg">
<mask id="mask0_214_2291" style="mask-type:alpha" maskUnits="userSpaceOnUse" x="0" y="0" width="28" height="28">
<rect width="28" height="28" fill="#D9D9D9"/>
</mask>
<g mask="url(#mask0_214_2291)">
<path d="M16.6247 24.9666C16.1775 25.4139 15.6233 25.6375 14.9622 25.6375C14.3011 25.6375 13.7469 25.4139 13.2997 24.9666L3.03301 14.7C2.81912 14.4861 2.64898 14.2333 2.52259 13.9416C2.3962 13.65 2.33301 13.3389 2.33301 13.0083V4.66665C2.33301 4.02498 2.56148 3.47567 3.01842 3.01873C3.47537 2.56179 4.02467 2.33331 4.66634 2.33331H13.008C13.3386 2.33331 13.6497 2.39651 13.9413 2.5229C14.233 2.64929 14.4858 2.81942 14.6997 3.03331L24.9663 13.3291C25.4136 13.7764 25.6372 14.3257 25.6372 14.9771C25.6372 15.6285 25.4136 16.1778 24.9663 16.625L16.6247 24.9666ZM7.58301 9.33331C8.06912 9.33331 8.48231 9.16317 8.82259 8.8229C9.16287 8.48262 9.33301 8.06942 9.33301 7.58331C9.33301 7.0972 9.16287 6.68401 8.82259 6.34373C8.48231 6.00345 8.06912 5.83331 7.58301 5.83331C7.0969 5.83331 6.6837 6.00345 6.34342 6.34373C6.00315 6.68401 5.83301 7.0972 5.83301 7.58331C5.83301 8.06942 6.00315 8.48262 6.34342 8.8229C6.6837 9.16317 7.0969 9.33331 7.58301 9.33331Z" fill="white"/>
<mask id="mask1_214_2291" style="mask-type:alpha" maskUnits="userSpaceOnUse" x="10" y="8" width="10" height="12">
<rect x="10.0928" y="8.46512" width="9.76744" height="11.2326" fill="#D9D9D9"/>
</mask>
<g mask="url(#mask1_214_2291)">
<path d="M17.2355 17.5314L16.3558 16.6881L15.7937 17.2746L15.2073 16.7124L15.7694 16.126L15.183 15.5638L14.6208 16.1503L14.0344 15.5881L14.5966 15.0017L11.9577 12.472L13.7846 10.5661C14.2156 10.1165 14.7374 9.88528 15.35 9.87233C15.9625 9.85939 16.4936 10.0684 16.9432 10.4994C17.3928 10.9304 17.6241 11.4521 17.637 12.0647C17.65 12.6773 17.441 13.2084 17.01 13.658L15.7451 14.9774L16.3316 15.5396L17.4559 14.3667L18.0423 14.9289L16.918 16.1017L17.7976 16.9449L17.2355 17.5314ZM15.1587 14.4153L16.4236 13.0958C16.6953 12.8124 16.827 12.4744 16.8187 12.082C16.8104 11.6896 16.6645 11.3575 16.3811 11.0858C16.0976 10.8141 15.7597 10.6824 15.3673 10.6907C14.9748 10.699 14.6428 10.8449 14.3711 11.1283L13.1062 12.4477L15.1587 14.4153Z" fill="#004891"/>
<path d="M11.7778 18L13.3334 16.4444" stroke="#004891"/>
</g>
</g>
</svg>
