<svg width="23" height="22" viewBox="0 0 23 22" fill="none" xmlns="http://www.w3.org/2000/svg">
<mask id="mask0_240_14" style="mask-type:alpha" maskUnits="userSpaceOnUse" x="0" y="0" width="23" height="22">
<rect y="0.0288086" width="23" height="21.9712" fill="#004891"/>
</mask>
<g mask="url(#mask0_240_14)">
<path d="M5.74992 18.3381C5.22284 18.3381 4.77162 18.1589 4.39627 17.8003C4.02093 17.4417 3.83325 17.0107 3.83325 16.5072V13.7608H5.74992V16.5072H17.2499V13.7608H19.1666V16.5072C19.1666 17.0107 18.9789 17.4417 18.6036 17.8003C18.2282 18.1589 17.777 18.3381 17.2499 18.3381H5.74992ZM11.4999 14.6763L6.70825 10.0989L8.04992 8.77151L10.5416 11.1517V3.69067H12.4583V11.1517L14.9499 8.77151L16.2916 10.0989L11.4999 14.6763Z" fill="#004891"/>
</g>
</svg>
