<svg width="24" height="24" viewBox="0 0 24 24" fill="none" xmlns="http://www.w3.org/2000/svg">
<mask id="mask0_214_2205" style="mask-type:alpha" maskUnits="userSpaceOnUse" x="0" y="0" width="24" height="24">
<rect width="24" height="24" fill="#D9D9D9"/>
</mask>
<g mask="url(#mask0_214_2205)">
<path d="M5 23.0554C4.45 23.0554 3.97917 22.8484 3.5875 22.4343C3.19583 22.0203 3 21.5226 3 20.9412V6.1419C3 5.5605 3.19583 5.06278 3.5875 4.64875C3.97917 4.23472 4.45 4.02771 5 4.02771H16L21 9.31318V20.9412C21 21.5226 20.8042 22.0203 20.4125 22.4343C20.0208 22.8484 19.55 23.0554 19 23.0554H5ZM5 20.9412H19V10.3703H15V6.1419H5V20.9412ZM7 18.827H17V16.7128H7V18.827ZM7 10.3703H12V8.25608H7V10.3703ZM7 14.5986H17V12.4845H7V14.5986Z" fill="white"/>
</g>
</svg>
