<svg width="29" height="28" viewBox="0 0 29 28" fill="none" xmlns="http://www.w3.org/2000/svg">
<mask id="mask0_351_1339" style="mask-type:alpha" maskUnits="userSpaceOnUse" x="0" y="0" width="29" height="28">
<rect x="0.918945" y="0.140259" width="27.6687" height="27.6687" fill="#D9D9D9"/>
</mask>
<g mask="url(#mask0_351_1339)">
<path d="M23.9189 24.3504C21.4403 24.3504 19.0241 23.798 16.6703 22.6931C14.3166 21.5883 12.2318 20.128 10.416 18.3123C8.60028 16.4965 7.13999 14.4118 6.03517 12.058C4.93034 9.70424 4.37793 7.28803 4.37793 4.80938C4.37793 4.46352 4.49322 4.17531 4.72379 3.94474C4.95436 3.71416 5.24258 3.59888 5.58843 3.59888H10.2575C10.5265 3.59888 10.7667 3.68534 10.9781 3.85827C11.1894 4.0312 11.3143 4.25216 11.3527 4.52117L12.1021 8.55618C12.1405 8.82518 12.1357 9.07016 12.0877 9.29113C12.0397 9.51209 11.9292 9.70904 11.7562 9.88197L8.98937 12.7065C9.79638 14.0899 10.8051 15.3869 12.0156 16.5974C13.2261 17.8079 14.5615 18.8551 16.0218 19.7389L18.731 17.0297C18.904 16.8568 19.1297 16.7271 19.4084 16.6406C19.687 16.5541 19.9608 16.5301 20.2298 16.5686L24.2071 17.3756C24.4761 17.4332 24.6971 17.5629 24.87 17.7647C25.043 17.9664 25.1294 18.2018 25.1294 18.4708V23.1399C25.1294 23.4857 25.0141 23.7739 24.7836 24.0045C24.553 24.2351 24.2648 24.3504 23.9189 24.3504Z" fill="white"/>
</g>
</svg>
