<svg width="17" height="17" viewBox="0 0 17 17" fill="none" xmlns="http://www.w3.org/2000/svg">
<mask id="mask0_375_562" style="mask-type:alpha" maskUnits="userSpaceOnUse" x="0" y="0" width="17" height="17">
<rect width="17" height="17" fill="#D9D9D9"/>
</mask>
<g mask="url(#mask0_375_562)">
<path d="M8.49984 15.5837C7.51998 15.5837 6.59914 15.3977 5.73734 15.0258C4.87553 14.654 4.12588 14.1493 3.48838 13.5118C2.85088 12.8743 2.34619 12.1246 1.97432 11.2628C1.60244 10.401 1.4165 9.48019 1.4165 8.50033C1.4165 7.52046 1.60244 6.59963 1.97432 5.73783C2.34619 4.87602 2.85088 4.12637 3.48838 3.48887C4.12588 2.85137 4.87553 2.34668 5.73734 1.9748C6.59914 1.60293 7.51998 1.41699 8.49984 1.41699C9.4797 1.41699 10.4005 1.60293 11.2623 1.9748C12.1241 2.34668 12.8738 2.85137 13.5113 3.48887C14.1488 4.12637 14.6535 4.87602 15.0254 5.73783C15.3972 6.59963 15.5832 7.52046 15.5832 8.50033C15.5832 9.48019 15.3972 10.401 15.0254 11.2628C14.6535 12.1246 14.1488 12.8743 13.5113 13.5118C12.8738 14.1493 12.1241 14.654 11.2623 15.0258C10.4005 15.3977 9.4797 15.5837 8.49984 15.5837ZM8.49984 14.167C10.0818 14.167 11.4217 13.618 12.5196 12.5201C13.6175 11.4222 14.1665 10.0823 14.1665 8.50033C14.1665 6.91838 13.6175 5.57845 12.5196 4.48053C11.4217 3.38262 10.0818 2.83366 8.49984 2.83366C6.91789 2.83366 5.57796 3.38262 4.48005 4.48053C3.38213 5.57845 2.83317 6.91838 2.83317 8.50033C2.83317 10.0823 3.38213 11.4222 4.48005 12.5201C5.57796 13.618 6.91789 14.167 8.49984 14.167Z" fill="#FF882E"/>
</g>
</svg>
