<svg width="29" height="29" viewBox="0 0 29 29" fill="none" xmlns="http://www.w3.org/2000/svg">
<mask id="mask0_349_1257" style="mask-type:alpha" maskUnits="userSpaceOnUse" x="0" y="0" width="29" height="29">
<rect x="0.148438" y="0.148926" width="27.9177" height="27.9177" fill="#D9D9D9"/>
</mask>
<g mask="url(#mask0_349_1257)">
<path d="M5.0846 22.1157L6.72376 18.7415C6.56531 18.5228 6.42963 18.2958 6.3167 18.0605C6.20377 17.8252 6.10019 17.5844 6.00595 17.3381L2.3121 16.6706L2.64248 10.2945L6.39015 10.0258C6.44788 9.90148 6.51109 9.78649 6.57979 9.68084L7.00783 9.02259C7.07653 8.91694 7.156 8.81252 7.24623 8.70932L5.97169 5.1748L11.6656 2.28653L13.7741 5.39207C14.0375 5.3783 14.3036 5.37794 14.5726 5.391C14.8417 5.40405 15.1001 5.43336 15.348 5.47892L17.7673 2.61198L23.1308 6.09972L21.4917 9.47398C21.6501 9.69264 21.7858 9.91963 21.8987 10.1549C22.0117 10.3903 22.1153 10.6311 22.2095 10.8773L25.9033 11.5449L25.573 17.9209L21.8253 18.1896C21.7676 18.314 21.7044 18.429 21.6357 18.5346L21.2076 19.1929C21.1389 19.2985 21.0513 19.3977 20.9448 19.4903L22.2194 23.0248L16.5255 25.9131L14.4413 22.8234C14.178 22.8372 13.9118 22.8375 13.6428 22.8245C13.3738 22.8114 13.1153 22.7821 12.8674 22.7365L10.4481 25.6035L5.0846 22.1157ZM11.937 17.5526C12.8797 18.1656 13.9009 18.3556 15.0006 18.1225C16.1003 17.8895 16.9566 17.3016 17.5696 16.3589C18.1826 15.4162 18.3726 14.395 18.1396 13.2953C17.9065 12.1956 17.3186 11.3393 16.376 10.7263C15.417 10.1027 14.3918 9.9101 13.3002 10.1484C12.2086 10.3868 11.3563 10.9773 10.7433 11.92C10.1303 12.8626 9.93629 13.8812 10.1612 14.9756C10.3861 16.07 10.9781 16.929 11.937 17.5526Z" fill="white"/>
</g>
</svg>
