<svg width="24" height="25" viewBox="0 0 24 25" fill="none" xmlns="http://www.w3.org/2000/svg">
<mask id="mask0_400_1263" style="mask-type:alpha" maskUnits="userSpaceOnUse" x="0" y="0" width="24" height="25">
<rect y="0.272461" width="24" height="24" fill="#D9D9D9"/>
</mask>
<g mask="url(#mask0_400_1263)">
<path d="M6 11.7725V6.27246H11.5V11.7725H6ZM6 18.2725V12.7725H11.5V18.2725H6ZM12.5 11.7725V6.27246H18V11.7725H12.5ZM12.5 18.2725V12.7725H18V18.2725H12.5ZM8 9.77246H9.5V8.27246H8V9.77246ZM14.5 9.77246H16V8.27246H14.5V9.77246ZM8 16.2725H9.5V14.7725H8V16.2725ZM14.5 16.2725H16V14.7725H14.5V16.2725ZM5 21.2725C4.45 21.2725 3.97917 21.0766 3.5875 20.685C3.19583 20.2933 3 19.8225 3 19.2725V5.27246C3 4.72246 3.19583 4.25163 3.5875 3.85996C3.97917 3.46829 4.45 3.27246 5 3.27246H19C19.55 3.27246 20.0208 3.46829 20.4125 3.85996C20.8042 4.25163 21 4.72246 21 5.27246V19.2725C21 19.8225 20.8042 20.2933 20.4125 20.685C20.0208 21.0766 19.55 21.2725 19 21.2725H5ZM5 19.2725H19V5.27246H5V19.2725Z" fill="#FF882E"/>
</g>
</svg>
