<svg width="28" height="28" viewBox="0 0 28 28" fill="none" xmlns="http://www.w3.org/2000/svg">
<mask id="mask0_214_2228" style="mask-type:alpha" maskUnits="userSpaceOnUse" x="0" y="0" width="28" height="28">
<rect width="28" height="28" fill="#D9D9D9"/>
</mask>
<g mask="url(#mask0_214_2228)">
<path d="M17.7368 16.4167C18.2614 16.4167 18.6952 16.2356 19.0382 15.8736C19.3811 15.5116 19.5526 15.0537 19.5526 14.5C19.5526 13.9463 19.3811 13.4884 19.0382 13.1264C18.6952 12.7644 18.2614 12.5833 17.7368 12.5833C17.2123 12.5833 16.7785 12.7644 16.4355 13.1264C16.0925 13.4884 15.9211 13.9463 15.9211 14.5C15.9211 15.0537 16.0925 15.5116 16.4355 15.8736C16.7785 16.2356 17.2123 16.4167 17.7368 16.4167ZM4.42105 26C3.75526 26 3.18531 25.7498 2.71118 25.2493C2.23706 24.7488 2 24.1472 2 23.4444V5.55556C2 4.85278 2.23706 4.25116 2.71118 3.75069C3.18531 3.25023 3.75526 3 4.42105 3H21.3684C22.0342 3 22.6042 3.25023 23.0783 3.75069C23.5524 4.25116 23.7895 4.85278 23.7895 5.55556V8.75H21.3684V5.55556H4.42105V23.4444H21.3684V20.25H23.7895V23.4444C23.7895 24.1472 23.5524 24.7488 23.0783 25.2493C22.6042 25.7498 22.0342 26 21.3684 26H4.42105ZM14.1053 20.8889C13.4395 20.8889 12.8695 20.6387 12.3954 20.1382C11.9213 19.6377 11.6842 19.0361 11.6842 18.3333V10.6667C11.6842 9.96389 11.9213 9.36227 12.3954 8.86181C12.8695 8.36134 13.4395 8.11111 14.1053 8.11111H22.5789C23.2447 8.11111 23.8147 8.36134 24.2888 8.86181C24.7629 9.36227 25 9.96389 25 10.6667V18.3333C25 19.0361 24.7629 19.6377 24.2888 20.1382C23.8147 20.6387 23.2447 20.8889 22.5789 20.8889H14.1053ZM22.5789 18.3333V10.6667H14.1053V18.3333H22.5789Z" fill="white"/>
</g>
</svg>
