<svg width="42" height="42" viewBox="0 0 42 42" fill="none" xmlns="http://www.w3.org/2000/svg">
<mask id="mask0_305_94" style="mask-type:alpha" maskUnits="userSpaceOnUse" x="2" y="2" width="38" height="38">
<rect x="2" y="2" width="38" height="38" fill="#D9D9D9"/>
</mask>
<g mask="url(#mask0_305_94)">
<path d="M20.9998 20.3271C18.8623 20.3271 17.0481 19.5816 15.5571 18.0907C14.0661 16.5997 13.3206 14.7854 13.3206 12.6479C13.3206 10.5104 14.0661 8.70281 15.5571 7.22503C17.0481 5.74725 18.8623 5.00836 20.9998 5.00836C23.1373 5.00836 24.9515 5.74725 26.4425 7.22503C27.9335 8.70281 28.679 10.5104 28.679 12.6479C28.679 14.7854 27.9335 16.5997 26.4425 18.0907C24.9515 19.5816 23.1373 20.3271 20.9998 20.3271ZM6.9873 35.6854V29.8271C6.9873 28.6844 7.28675 27.6342 7.88565 26.6763C8.48457 25.7185 9.28026 24.9875 10.2727 24.4834C11.988 23.6389 13.7423 22.999 15.5357 22.5636C17.329 22.1282 19.1504 21.9104 20.9998 21.9104C22.8998 21.9104 24.747 22.1216 26.5415 22.5438C28.3359 22.966 30.0644 23.5993 31.7269 24.4438C32.7193 24.9441 33.515 25.6695 34.114 26.62C34.7129 27.5706 35.0123 28.6389 35.0123 29.8249V35.6854H6.9873Z" fill="#FF882E"/>
</g>
<rect width="42" height="42" rx="8" fill="#FF882E" fill-opacity="0.2"/>
</svg>
