<svg width="43" height="42" viewBox="0 0 43 42" fill="none" xmlns="http://www.w3.org/2000/svg">
<mask id="mask0_305_96" style="mask-type:alpha" maskUnits="userSpaceOnUse" x="2" y="2" width="39" height="38">
<rect x="2.73047" y="2" width="38" height="38" fill="#D9D9D9"/>
</mask>
<g mask="url(#mask0_305_96)">
<path d="M26.4803 27.3333H31.2303C31.6789 27.3333 32.055 27.1816 32.3585 26.8781C32.6619 26.5746 32.8137 26.1986 32.8137 25.75V16.25C32.8137 15.8013 32.6619 15.4253 32.3585 15.1218C32.055 14.8184 31.6789 14.6666 31.2303 14.6666H26.4803C26.0317 14.6666 25.6557 14.8184 25.3522 15.1218C25.0487 15.4253 24.897 15.8013 24.897 16.25V25.75C24.897 26.1986 25.0487 26.5746 25.3522 26.8781C25.6557 27.1816 26.0317 27.3333 26.4803 27.3333ZM28.0637 24.1666V17.8333H29.647V24.1666H28.0637ZM16.9803 27.3333H21.7303C22.1789 27.3333 22.555 27.1816 22.8585 26.8781C23.1619 26.5746 23.3137 26.1986 23.3137 25.75V16.25C23.3137 15.8013 23.1619 15.4253 22.8585 15.1218C22.555 14.8184 22.1789 14.6666 21.7303 14.6666H16.9803C16.5317 14.6666 16.1557 14.8184 15.8522 15.1218C15.5487 15.4253 15.397 15.8013 15.397 16.25V25.75C15.397 26.1986 15.5487 26.5746 15.8522 26.8781C16.1557 27.1816 16.5317 27.3333 16.9803 27.3333ZM18.5637 24.1666V17.8333H20.147V24.1666H18.5637ZM10.647 27.3333H13.8137V14.6666H10.647V27.3333ZM4.07617 35.4875V6.51245H39.3845V35.4875H4.07617Z" fill="#FF882E"/>
</g>
<rect x="0.730469" width="42" height="42" rx="8" fill="#FF882E" fill-opacity="0.2"/>
</svg>
