<svg width="42" height="42" viewBox="0 0 42 42" fill="none" xmlns="http://www.w3.org/2000/svg">
<mask id="mask0_305_99" style="mask-type:alpha" maskUnits="userSpaceOnUse" x="2" y="2" width="38" height="37">
<rect x="2.73926" y="2" width="36.6295" height="37" fill="#D9D9D9"/>
</mask>
<g mask="url(#mask0_305_99)">
<path d="M21.2074 34.375C20.7749 34.375 20.4125 34.2273 20.1199 33.9318C19.8274 33.6363 19.6811 33.2701 19.6811 32.8333C19.6811 32.6535 19.7193 32.4672 19.7956 32.2745C19.8719 32.0818 19.9864 31.9083 20.139 31.7542L27.1978 24.624L26.0913 23.5062L19.0707 30.6365C18.918 30.7906 18.7527 30.9062 18.5746 30.9833C18.3966 31.0604 18.2058 31.099 18.0023 31.099C17.5699 31.099 17.2074 30.9512 16.9149 30.6557C16.6223 30.3602 16.4761 29.9941 16.4761 29.5573C16.4761 29.3003 16.5142 29.0884 16.5905 28.9214C16.6669 28.7543 16.7686 28.6066 16.8958 28.4781L23.9546 21.3479L22.8862 20.2688L15.8274 27.3604C15.6748 27.5146 15.5095 27.6302 15.3314 27.7073C15.1533 27.7844 14.9498 27.8229 14.7209 27.8229C14.3139 27.8229 13.9578 27.6687 13.6526 27.3604C13.3473 27.0521 13.1947 26.6924 13.1947 26.2812C13.1947 26.0757 13.2328 25.883 13.3092 25.7031C13.3855 25.5233 13.4999 25.3562 13.6526 25.2021L20.7114 18.0719L19.6048 16.9927L12.5842 24.1229C12.457 24.2514 12.3044 24.3542 12.1263 24.4312C11.9483 24.5083 11.732 24.5469 11.4777 24.5469C11.0452 24.5469 10.6828 24.3991 10.3902 24.1036C10.0977 23.8082 9.95145 23.442 9.95145 23.0052C9.95145 22.7997 9.98961 22.6069 10.0659 22.4271C10.1422 22.2472 10.2567 22.0802 10.4093 21.926L18.918 13.3312L24.6414 19.151C24.9212 19.4337 25.2519 19.6585 25.6334 19.8255C26.015 19.9925 26.3965 20.076 26.7781 20.076C27.5921 20.076 28.3043 19.787 28.9148 19.2089C29.5253 18.6307 29.8306 17.892 29.8306 16.9927C29.8306 16.633 29.767 16.2604 29.6398 15.875C29.5126 15.4896 29.2837 15.1299 28.953 14.7958L22.1231 7.89687C22.5555 7.48576 23.0389 7.17101 23.573 6.9526C24.1072 6.7342 24.6414 6.625 25.1756 6.625C25.8369 6.625 26.4474 6.7342 27.007 6.9526C27.5667 7.17101 28.0754 7.51146 28.5333 7.97396L34.9816 14.526C35.4394 14.9885 35.7765 15.5024 35.9927 16.0677C36.2089 16.633 36.317 17.2882 36.317 18.0333C36.317 18.5472 36.2026 19.0675 35.9736 19.5943C35.7447 20.121 35.414 20.6028 34.9816 21.0396L22.2757 33.9125C22.0722 34.1181 21.8942 34.2465 21.7416 34.2979C21.5889 34.3493 21.4109 34.375 21.2074 34.375ZM8.11998 22.0417L7.12793 21.0396C6.6955 20.6285 6.36482 20.1403 6.13588 19.575C5.90695 19.0097 5.79248 18.4187 5.79248 17.8021C5.79248 17.134 5.91967 16.5174 6.17404 15.9521C6.42841 15.3868 6.74637 14.9115 7.12793 14.526L13.5762 7.97396C13.9832 7.56285 14.4665 7.23524 15.0262 6.99115C15.5858 6.74705 16.1327 6.625 16.6669 6.625C17.3537 6.625 17.9641 6.72135 18.4983 6.91406C19.0325 7.10677 19.554 7.46007 20.0627 7.97396L27.8846 15.875C28.0372 16.0292 28.1517 16.1962 28.228 16.376C28.3043 16.5559 28.3425 16.7486 28.3425 16.9542C28.3425 17.3653 28.1899 17.725 27.8846 18.0333C27.5794 18.3417 27.2233 18.4958 26.8163 18.4958C26.5873 18.4958 26.3966 18.4637 26.2439 18.3995C26.0913 18.3352 25.926 18.2132 25.7479 18.0333L18.8799 11.1729L8.11998 22.0417Z" fill="#FF882E"/>
</g>
<rect width="42" height="42" rx="8" fill="#FF882E" fill-opacity="0.2"/>
</svg>
