<svg width="42" height="42" viewBox="0 0 42 42" fill="none" xmlns="http://www.w3.org/2000/svg">
<rect width="42" height="42" rx="8" fill="#FFDA86" fill-opacity="0.2"/>
<path d="M24.9762 23.0914L27.6786 25.7938C28.365 24.9359 28.8797 24.0244 29.2229 23.0592C29.5661 22.094 29.7377 21.1181 29.7377 20.1315C29.7377 19.1449 29.5661 18.1583 29.2229 17.1717C28.8797 16.1851 28.365 15.2843 27.6786 14.4693L24.9762 17.2361C25.3194 17.665 25.5553 18.1261 25.684 18.6194C25.8127 19.1128 25.877 19.6168 25.877 20.1315C25.877 20.6463 25.8127 21.1503 25.684 21.6436C25.5553 22.1369 25.3194 22.6195 24.9762 23.0914Z" fill="#FFDA86"/>
<path d="M30.3811 28.5606L33.1479 31.3274C34.6064 29.7403 35.6895 27.9815 36.3973 26.0512C37.1051 24.1209 37.459 22.1477 37.459 20.1315C37.459 18.1154 37.1051 16.1529 36.3973 14.244C35.6895 12.3352 34.6064 10.5872 33.1479 9L30.3811 11.7668C31.4535 12.9679 32.2578 14.2869 32.794 15.724C33.3302 17.161 33.5983 18.6302 33.5983 20.1315C33.5983 21.6329 33.3302 23.1128 32.794 24.5713C32.2578 26.0298 31.4535 27.3595 30.3811 28.5606Z" fill="#FFDA86"/>
<path d="M10.6596 21.1932C11.6677 22.2013 12.8795 22.7053 14.2951 22.7053C15.7106 22.7053 16.9224 22.2013 17.9305 21.1932C18.9386 20.1852 19.4426 18.9733 19.4426 17.5578C19.4426 16.1422 18.9386 14.9304 17.9305 13.9223C16.9224 12.9143 15.7106 12.4102 14.2951 12.4102C12.8795 12.4102 11.6677 12.9143 10.6596 13.9223C9.65156 14.9304 9.14753 16.1422 9.14753 17.5578C9.14753 18.9733 9.65156 20.1852 10.6596 21.1932Z" fill="#FFDA86"/>
<path d="M4 31.5205V33.0004H24.5901V31.5205C24.5901 30.4909 24.3113 29.5472 23.7537 28.6893C23.196 27.8314 22.4239 27.1879 21.4373 26.759C20.322 26.2871 19.1745 25.9225 17.9949 25.6651C16.8152 25.4078 15.5819 25.2791 14.2951 25.2791C13.0082 25.2791 11.7749 25.4078 10.5953 25.6651C9.41563 25.9225 8.26816 26.2871 7.15286 26.759C6.16625 27.1879 5.39412 27.8314 4.83647 28.6893C4.27882 29.5472 4 30.4909 4 31.5205Z" fill="#FFDA86"/>
</svg>
