<svg width="61" height="61" viewBox="0 0 61 61" fill="none" xmlns="http://www.w3.org/2000/svg">
<path d="M25.2152 55.4464C11.4377 52.5277 2.63493 38.9927 5.55362 25.2152C8.47231 11.4377 22.0072 2.63494 35.7847 5.55363C49.5622 8.47231 58.365 22.0072 55.4464 35.7847C52.5277 49.5622 38.9927 58.3651 25.2152 55.4464ZM34.824 10.0888C23.5512 7.70073 12.4769 14.9032 10.0888 26.176C7.70072 37.4488 14.9032 48.5231 26.176 50.9112C37.4488 53.2993 48.5231 46.0968 50.9112 34.824C53.2993 23.5512 46.0968 12.4769 34.824 10.0888Z" fill="#ABABAB"/>
<path d="M23.478 55.0141C17.8558 53.4036 12.958 49.9096 9.60554 45.1175C6.25308 40.3255 4.64968 34.5267 5.06408 28.6931L9.68826 29.0216C9.34919 33.7947 10.6611 38.5392 13.4041 42.4601C16.1471 46.381 20.1545 49.2398 24.7546 50.5575L23.478 55.0141Z" fill="#FF882E"/>
</svg>
