<svg width="643" height="88" viewBox="0 0 643 88" fill="none" xmlns="http://www.w3.org/2000/svg">
<g clip-path="url(#clip0_86_69)">
<path d="M75.0147 85.7528V64.1941H90.5514C130.898 64.1941 130.898 1.56573 90.5514 1.44529H53.4561V85.7528H75.0147ZM90.4309 44.8034H75.0147V20.7156C79.9527 20.7156 85.3725 20.5951 90.4309 20.7156C102.956 20.836 102.233 44.8034 90.4309 44.8034ZM218.337 43.7195C218.337 -14.5732 131.862 -14.5732 131.862 43.7195C131.862 102.133 218.337 102.133 218.337 43.7195ZM154.022 43.7195C154.022 13.3688 196.297 13.3688 196.297 43.7195C196.297 74.311 154.022 74.311 154.022 43.7195ZM272.776 86.5958C290.721 86.5958 309.63 77.2016 312.761 53.3546H291.564C289.276 62.3876 281.929 66.9642 272.776 66.9642C260.009 66.8438 251.819 56.0043 251.819 43.599C251.819 29.6281 260.129 20.1134 272.776 20.1134C281.808 20.1134 288.192 23.9674 291.203 32.5186H312.4C309.148 9.99648 290.239 0.481782 272.776 0.481782C251.337 0.481782 229.658 14.9345 229.538 43.599C229.658 72.2636 251.337 86.7163 272.776 86.5958ZM339.74 85.7528L344.678 75.1541H377.919L382.857 85.7528H403.934V82.6214L365.875 0.361343H356.601L318.663 82.6214V85.7528H339.74ZM370.934 56.7269H351.663L361.178 34.5661L370.934 56.7269ZM436.573 85.7528V64.1941H452.11C492.457 64.1941 492.457 1.56573 452.11 1.44529H415.014V85.7528H436.573ZM451.989 44.8034H436.573V20.7156C441.511 20.7156 446.931 20.5951 451.989 20.7156C464.515 20.836 463.792 44.8034 451.989 44.8034ZM548.807 55.2933V46.5867H496.583V55.2894L548.807 55.2933ZM578.765 85.7528L600.203 36.3727L621.882 85.7528H642.959V82.6214L604.9 0.361343H595.627L557.688 82.6214V85.7528H578.765Z" fill="#004891"/>
<path opacity="0.9" fill-rule="evenodd" clip-rule="evenodd" d="M46.3141 1.53516V85.932H27.1953V1.53516H46.3141Z" fill="#FF882E"/>
<path fill-rule="evenodd" clip-rule="evenodd" d="M19.1188 1.53516V85.932H0V1.53516H19.1188Z" fill="#FFDA86"/>
</g>
<defs>
<clipPath id="clip0_86_69">
<rect width="643" height="88" fill="white"/>
</clipPath>
</defs>
</svg>
