<svg width="18" height="18" viewBox="0 0 18 18" fill="none" xmlns="http://www.w3.org/2000/svg">
<path d="M1.4 18L7.7 11.7C8.2 12.1 8.775 12.4167 9.425 12.65C10.075 12.8833 10.7667 13 11.5 13C13.3167 13 14.8542 12.3708 16.1125 11.1125C17.3708 9.85417 18 8.31667 18 6.5C18 4.68333 17.3708 3.14583 16.1125 1.8875C14.8542 0.629167 13.3167 0 11.5 0C9.68333 0 8.14583 0.629167 6.8875 1.8875C5.62917 3.14583 5 4.68333 5 6.5C5 7.23333 5.11667 7.925 5.35 8.575C5.58333 9.225 5.9 9.8 6.3 10.3L0 16.6L1.4 18ZM11.5 11C10.25 11 9.1875 10.5625 8.3125 9.6875C7.4375 8.8125 7 7.75 7 6.5C7 5.25 7.4375 4.1875 8.3125 3.3125C9.1875 2.4375 10.25 2 11.5 2C12.75 2 13.8125 2.4375 14.6875 3.3125C15.5625 4.1875 16 5.25 16 6.5C16 7.75 15.5625 8.8125 14.6875 9.6875C13.8125 10.5625 12.75 11 11.5 11Z" fill="white"/>
</svg>
