<svg width="30" height="30" viewBox="0 0 30 30" fill="none" xmlns="http://www.w3.org/2000/svg">
<mask id="mask0_202_563" style="mask-type:alpha" maskUnits="userSpaceOnUse" x="0" y="0" width="30" height="30">
<rect width="30" height="30" fill="#D9D9D9"/>
</mask>
<g mask="url(#mask0_202_563)">
<path d="M9.4 21C9.015 21 8.68542 20.8586 8.41125 20.5757C8.13708 20.2928 8 19.9528 8 19.5556V9.44444C8 9.04722 8.13708 8.70718 8.41125 8.42431C8.68542 8.14144 9.015 8 9.4 8H20.6C20.985 8 21.3146 8.14144 21.5887 8.42431C21.8629 8.70718 22 9.04722 22 9.44444V19.5556C22 19.9528 21.8629 20.2928 21.5887 20.5757C21.3146 20.8586 20.985 21 20.6 21H9.4ZM9.4 19.5556H20.6V9.44444H9.4V19.5556ZM10.8 18.1111H19.2V16.6667H10.8V18.1111ZM10.8 15.2222H13.6V10.8889H10.8V15.2222ZM15 15.2222H19.2V13.7778H15V15.2222ZM15 12.3333H19.2V10.8889H15V12.3333Z" fill="white"/>
</g>
</svg>
