<svg width="30" height="30" viewBox="0 0 30 30" fill="none" xmlns="http://www.w3.org/2000/svg">
<mask id="mask0_202_542" style="mask-type:alpha" maskUnits="userSpaceOnUse" x="0" y="0" width="30" height="30">
<rect width="30" height="30" fill="#D9D9D9"/>
</mask>
<g mask="url(#mask0_202_542)">
<path d="M10.3182 22C9.59848 22 8.98674 21.7448 8.48295 21.2344C7.97917 20.724 7.72727 20.1042 7.72727 19.375H6V9.75C6 9.26875 6.16913 8.85677 6.50739 8.51406C6.84564 8.17135 7.25227 8 7.72727 8H19.8182V11.5H22.4091L25 15V19.375H23.2727C23.2727 20.1042 23.0208 20.724 22.517 21.2344C22.0133 21.7448 21.4015 22 20.6818 22C19.9621 22 19.3504 21.7448 18.8466 21.2344C18.3428 20.724 18.0909 20.1042 18.0909 19.375H12.9091C12.9091 20.1042 12.6572 20.724 12.1534 21.2344C11.6496 21.7448 11.0379 22 10.3182 22ZM10.3182 20.25C10.5629 20.25 10.768 20.1661 10.9335 19.9984C11.0991 19.8307 11.1818 19.6229 11.1818 19.375C11.1818 19.1271 11.0991 18.9193 10.9335 18.7516C10.768 18.5839 10.5629 18.5 10.3182 18.5C10.0735 18.5 9.86837 18.5839 9.70284 18.7516C9.53731 18.9193 9.45455 19.1271 9.45455 19.375C9.45455 19.6229 9.53731 19.8307 9.70284 19.9984C9.86837 20.1661 10.0735 20.25 10.3182 20.25ZM7.72727 17.625H8.41818C8.66288 17.3625 8.94356 17.151 9.26023 16.9906C9.57689 16.8302 9.92955 16.75 10.3182 16.75C10.7068 16.75 11.0595 16.8302 11.3761 16.9906C11.6928 17.151 11.9735 17.3625 12.2182 17.625H18.0909V9.75H7.72727V17.625ZM20.6818 20.25C20.9265 20.25 21.1316 20.1661 21.2972 19.9984C21.4627 19.8307 21.5455 19.6229 21.5455 19.375C21.5455 19.1271 21.4627 18.9193 21.2972 18.7516C21.1316 18.5839 20.9265 18.5 20.6818 18.5C20.4371 18.5 20.232 18.5839 20.0665 18.7516C19.9009 18.9193 19.8182 19.1271 19.8182 19.375C19.8182 19.6229 19.9009 19.8307 20.0665 19.9984C20.232 20.1661 20.4371 20.25 20.6818 20.25ZM19.8182 15.875H23.4886L21.5455 13.25H19.8182V15.875Z" fill="white"/>
</g>
</svg>
