<svg width="30" height="30" viewBox="0 0 30 30" fill="none" xmlns="http://www.w3.org/2000/svg">
<mask id="mask0_202_560" style="mask-type:alpha" maskUnits="userSpaceOnUse" x="0" y="0" width="30" height="30">
<rect width="30" height="30" fill="#D9D9D9"/>
</mask>
<g mask="url(#mask0_202_560)">
<path d="M9.95 21C9.40833 21 8.94792 20.8104 8.56875 20.4312C8.18958 20.0521 8 19.5917 8 19.05V17.1H9.95V8H19.7V13.915C19.4833 13.8608 19.264 13.8446 19.0419 13.8663C18.8198 13.8879 18.6058 13.9421 18.4 14.0287V9.3H11.25V17.1H15.15L13.85 18.4H9.3V19.05C9.3 19.2342 9.36229 19.3885 9.48688 19.5131C9.61146 19.6377 9.76583 19.7 9.95 19.7H13.85V21H9.95ZM15.15 21V18.9362L17.945 16.1412L18.6437 16.84L16.125 19.3425V20.025H16.8075L19.3263 17.5225L20.0087 18.205L17.2137 21H15.15ZM20.0087 18.205L17.945 16.1412L18.7575 15.3288C18.8767 15.2096 19.0283 15.15 19.2125 15.15C19.3967 15.15 19.5483 15.2096 19.6675 15.3288L20.8212 16.4825C20.9404 16.6017 21 16.7533 21 16.9375C21 17.1217 20.9404 17.2733 20.8212 17.3925L20.0087 18.205ZM11.9 12.55V11.25H17.75V12.55H11.9ZM11.9 14.5V13.2H17.75V14.5H11.9Z" fill="white"/>
</g>
</svg>
